<?xml version="1.0" encoding="UTF-8"?>
<svg version="1.1" xmlns="http://www.w3.org/2000/svg" width="280" height="280">
<path d="M0 0 C1.0952449 0.00081573 1.0952449 0.00081573 2.21261597 0.00164795 C13.5494394 0.0404594 24.1199489 0.79767256 34.9375 4.375 C35.59347168 4.57867188 36.24944336 4.78234375 36.92529297 4.9921875 C55.17591745 10.74293132 70.72109597 20.72427923 84.9375 33.375 C85.81019531 34.14585938 86.68289062 34.91671875 87.58203125 35.7109375 C105.68384003 52.7665822 119.02578567 78.68214992 121.9375 103.375 C122.04707031 104.28894531 122.15664063 105.20289062 122.26953125 106.14453125 C125.81167628 141.42429575 117.34946769 174.34573147 94.796875 202.015625 C90.83119723 206.75165331 86.65073002 211.37198272 81.9375 215.375 C81.2775 215.375 80.6175 215.375 79.9375 215.375 C79.9375 216.035 79.9375 216.695 79.9375 217.375 C77.61972501 219.18414369 75.30720535 220.8563927 72.875 222.5 C72.14982178 222.99137451 71.42464355 223.48274902 70.67749023 223.98901367 C61.0517905 230.40928326 51.27303389 235.75399283 40.375 239.6875 C39.73957275 239.91800049 39.10414551 240.14850098 38.44946289 240.38598633 C26.6454754 244.40326641 15.13592824 245.87109851 2.75170898 245.76611328 C0.50507707 245.75003633 -1.73975032 245.76605728 -3.98632812 245.78515625 C-35.22304812 245.83108412 -63.68646877 232.82352734 -86.0625 211.375 C-86.73667969 210.75238281 -87.41085938 210.12976563 -88.10546875 209.48828125 C-110.22094549 188.43222855 -121.53464343 159.48495389 -123.0625 129.375 C-123.10503906 128.5396875 -123.14757812 127.704375 -123.19140625 126.84375 C-123.79898967 101.24423513 -117.78929601 76.52916884 -103.0625 55.375 C-102.4334375 54.45976563 -101.804375 53.54453125 -101.15625 52.6015625 C-85.16641332 29.94929387 -63.47067914 13.80751826 -37.0625 5.375 C-35.82113281 4.96314453 -35.82113281 4.96314453 -34.5546875 4.54296875 C-23.10904217 0.90117251 -11.95883438 -0.03349766 0 0 Z " fill="#217CC0" transform="translate(137.0625,19.625)"/>
<path d="M0 0 C1.24882462 -0.01283524 2.49764923 -0.02567047 3.78431702 -0.03889465 C5.15104778 -0.04706615 6.51778306 -0.0545091 7.88452148 -0.0612793 C8.92079839 -0.06739259 8.92079839 -0.06739259 9.97801018 -0.07362938 C13.63995945 -0.09448337 17.30187141 -0.10878377 20.96386719 -0.11816406 C24.72403025 -0.12918263 28.48359403 -0.16353045 32.24354649 -0.20333576 C35.15287782 -0.22964911 38.06207011 -0.23786917 40.97150993 -0.24144554 C42.35603791 -0.2462795 43.74056103 -0.25780113 45.12497139 -0.27648354 C53.62486393 -0.38399008 60.32411876 0.29346241 67.94311523 4.17700195 C68.89444336 4.62301758 69.84577148 5.0690332 70.82592773 5.52856445 C82.44045437 12.12496808 90.09886594 24.27450167 94.11499023 36.8449707 C98.00087429 53.90217066 95.29425919 71.71151518 86.56030273 86.6809082 C79.86367626 97.01700559 70.16337636 104.53194636 57.94311523 107.17700195 C52.14978108 107.62915056 46.3724501 107.6243635 40.56420898 107.6105957 C38.86662082 107.61516722 37.1690345 107.62047565 35.47145081 107.6264801 C31.92018096 107.63538552 28.36913624 107.63302092 24.81787109 107.62304688 C20.31185585 107.6116126 15.80663081 107.63169613 11.30071926 107.66096401 C7.79406451 107.67950232 4.28759253 107.67899803 0.78090096 107.67332649 C-0.87774697 107.67317514 -2.53640882 107.67906195 -4.19500923 107.69161797 C-23.78561013 107.81896004 -40.99909605 102.92430979 -58.05688477 93.17700195 C-58.05688477 84.92700195 -58.05688477 76.67700195 -58.05688477 68.17700195 C-54.57255097 69.91916885 -51.9395874 71.70393933 -48.86938477 74.05200195 C-34.70751562 84.40249734 -19.3722048 86.80451846 -2.27563477 86.6730957 C-0.60607846 86.67325112 1.06347819 86.67474714 2.73303223 86.67750549 C6.2023141 86.67887822 9.67117681 86.66651223 13.14038086 86.64355469 C17.57652789 86.61499448 22.01198955 86.61797041 26.44818878 86.6306448 C29.88323796 86.63760669 33.31812953 86.62980985 36.75315857 86.61738777 C38.38935237 86.61289072 40.02556317 86.61252112 41.66175842 86.61645317 C43.94404785 86.61937509 46.22539798 86.6028193 48.50756836 86.58105469 C50.44944031 86.57295021 50.44944031 86.57295021 52.43054199 86.56468201 C56.24020268 86.14421264 58.6295704 85.04778807 61.94311523 83.17700195 C62.93311523 82.84700195 63.92311523 82.51700195 64.94311523 82.17700195 C65.96962897 80.46180448 65.96962897 80.46180448 66.94311523 78.17700195 C68.88061523 74.92700195 68.88061523 74.92700195 69.84545898 73.34887695 C73.34794757 66.41868602 74.42298077 60.86714099 74.31811523 53.17700195 C74.33551758 51.90083008 74.33551758 51.90083008 74.35327148 50.59887695 C74.31013705 41.22432659 71.24263566 34.10573301 64.94311523 27.17700195 C58.32933453 20.98135531 52.12624987 20.3459026 43.29183197 20.510252 C41.19702862 20.54888808 39.10494296 20.55010626 37.00982666 20.54249573 C32.57048577 20.53323348 28.13221405 20.57197771 23.69311523 20.61450195 C18.53073315 20.65932928 13.36927789 20.68415704 8.20670319 20.66993904 C6.14920801 20.67304406 4.09371705 20.70669173 2.03656006 20.74205017 C0.78465881 20.74177322 -0.46724243 20.74149628 -1.75708008 20.74121094 C-2.8557843 20.75264633 -3.95448853 20.76408173 -5.08648682 20.77586365 C-9.03057379 19.98069659 -10.52005526 18.21852177 -13.05688477 15.17700195 C-14.23470498 12.47218474 -14.45642567 10.09935828 -14.05688477 7.17700195 C-10.78559368 1.00676186 -6.56408237 0.05873691 0 0 Z " fill="#F9FCFD" transform="translate(118.056884765625,110.822998046875)"/>
<path d="M0 0 C1.29244629 -0.00637985 2.58489258 -0.0127597 3.91650391 -0.01933289 C5.31282514 -0.02086288 6.70914687 -0.02197613 8.10546875 -0.02270508 C9.56168652 -0.02592577 11.01790397 -0.02929042 12.47412109 -0.03279114 C15.52360786 -0.03876273 18.57306639 -0.04063329 21.62255859 -0.04003906 C25.48729493 -0.03993806 29.351845 -0.05353491 33.21653748 -0.07081127 C36.22642814 -0.08206073 39.23627579 -0.08395428 42.2461853 -0.08342934 C43.66841264 -0.08459221 45.09064173 -0.08891595 46.5128479 -0.0967617 C59.45878524 -0.16144454 72.32548571 0.53320055 84.60546875 4.95776367 C85.35965088 5.218396 86.11383301 5.47902832 86.89086914 5.74755859 C91.9323462 7.5336354 96.74276337 9.60203005 101.4453125 12.16479492 C103.42780156 13.28207271 103.42780156 13.28207271 106.29296875 14.14526367 C106.29296875 22.72526367 106.29296875 31.30526367 106.29296875 40.14526367 C103.08661797 38.54208828 100.6848431 37.01371597 97.85546875 34.89526367 C82.29927495 23.97186335 65.28737931 20.4953827 46.69921875 20.61401367 C45.17183181 20.61130811 43.64444658 20.60741695 42.11706543 20.60241699 C38.95059449 20.59658601 35.78458101 20.6048836 32.61816406 20.6237793 C28.57895379 20.64672354 24.54079809 20.63330905 20.50162506 20.60948944 C17.36157363 20.59498967 14.22176997 20.59965373 11.08171082 20.61000061 C9.5922991 20.61264828 8.10286411 20.60946796 6.61347961 20.6000824 C-2.57127943 20.55481931 -9.56186229 20.82369191 -16.87890625 26.96948242 C-24.92766448 36.47259547 -27.31705034 45.85500585 -27.05078125 58.21557617 C-26.26086905 67.24570882 -21.93918768 75.59755502 -15.70703125 82.14526367 C-10.28556773 86.37400522 -6.49816003 87.26828114 0.25146484 87.27124023 C2.05386124 87.27695038 2.05386124 87.27695038 3.89266968 87.28277588 C5.83491928 87.28431671 5.83491928 87.28431671 7.81640625 87.28588867 C9.85479706 87.29782262 11.89314563 87.31318507 13.93151283 87.32859421 C18.9537237 87.36652552 23.97567614 87.39787954 28.99804688 87.39575195 C32.49785217 87.39496302 35.9967808 87.41839984 39.49635696 87.45763397 C41.46930305 87.47311712 43.44239751 87.46277144 45.41537476 87.45196533 C55.40818754 87.58776781 55.40818754 87.58776781 59.11181641 90.44116211 C61.46393425 93.35721956 61.96910868 95.23864576 61.9921875 98.98510742 C60.81340877 102.62680932 59.49255063 105.05889764 56.29296875 107.14526367 C51.28302401 108.09864519 46.28203403 108.01475839 41.203125 107.97729492 C39.69680508 107.98388644 38.1904915 107.99210787 36.68418884 108.00187683 C33.52404228 108.01522818 30.36491043 108.00640373 27.20483398 107.98242188 C23.19320844 107.95404869 19.18455379 107.98367522 15.17319584 108.0310564 C12.05763651 108.06055959 8.9427596 108.0564243 5.82711601 108.04303551 C4.35101459 108.04090858 2.87485445 108.04914416 1.39888191 108.06876564 C-11.74624639 108.21377696 -21.89775738 104.97444501 -31.64453125 95.83276367 C-33.02885049 94.29691412 -34.3843934 92.73454109 -35.70703125 91.14526367 C-36.34253906 90.43112305 -36.97804688 89.71698242 -37.6328125 88.98120117 C-46.82604649 77.5241087 -49.21630909 61.39171807 -47.70703125 47.14526367 C-45.200122 30.933147 -38.76183167 17.34100372 -25.70703125 7.14526367 C-17.33131449 1.77621446 -9.90933157 0.03344285 0 0 Z " fill="#FAFDFD" transform="translate(107.70703125,66.854736328125)"/>
<path d="M0 0 C1.31417908 -0.00095673 2.62835815 -0.00191345 3.98236084 -0.00289917 C6.7559935 -0.0043669 9.52959379 -0.00225286 12.30322266 0.00244141 C15.82402781 0.00811571 19.34475632 0.00486839 22.86555862 -0.00113106 C26.26454486 -0.00565811 29.6635116 -0.00246729 33.0625 0 C34.30976868 -0.00202423 35.55703735 -0.00404846 36.84210205 -0.00613403 C58.21432574 0.05026324 58.21432574 0.05026324 60.296875 2.1328125 C62.50365246 2.2659291 64.71258514 2.36391761 66.921875 2.4453125 C72.97991077 2.81508071 76.36247576 3.73355969 81.296875 7.1328125 C82.286875 7.1328125 83.276875 7.1328125 84.296875 7.1328125 C84.296875 7.7928125 84.296875 8.4528125 84.296875 9.1328125 C85.286875 9.1328125 86.276875 9.1328125 87.296875 9.1328125 C87.296875 9.7928125 87.296875 10.4528125 87.296875 11.1328125 C88.534375 11.0090625 89.771875 10.8853125 91.046875 10.7578125 C93.25390625 10.76171875 93.25390625 10.76171875 95.296875 11.1328125 C100.92397561 17.04848237 100.49200257 24.97887674 100.546875 32.6953125 C100.5778125 33.78875977 100.5778125 33.78875977 100.609375 34.90429688 C100.64416195 39.73533494 99.84506446 42.88806533 97.296875 47.1328125 C94.859375 46.3203125 94.859375 46.3203125 92.296875 45.1328125 C91.966875 44.1428125 91.636875 43.1528125 91.296875 42.1328125 C89.57527821 41.40444463 87.85038575 40.68230054 86.10546875 40.01171875 C84.296875 39.1328125 84.296875 39.1328125 82.109375 36.6953125 C77.82986576 32.79620408 72.76866601 31.74547677 67.296875 30.1328125 C66.24371094 29.72417969 65.19054687 29.31554687 64.10546875 28.89453125 C63.17863281 28.64316406 62.25179687 28.39179687 61.296875 28.1328125 C60.306875 28.7928125 59.316875 29.4528125 58.296875 30.1328125 C57.306875 29.1428125 57.306875 29.1428125 56.296875 28.1328125 C47.28004794 26.5028327 37.82408867 27.00032241 28.6875 27.03515625 C27.22491505 27.03702658 25.76232946 27.03844757 24.29974365 27.03944397 C20.49241334 27.04322079 16.68512256 27.05300841 12.87780762 27.06414795 C8.97583551 27.07446738 5.07385688 27.07896391 1.171875 27.08398438 C-6.45314282 27.09463617 -14.07812832 27.11165275 -21.703125 27.1328125 C-18.94198838 24.10871049 -16.96576804 23.19665724 -12.79255676 22.98564148 C-11.60393539 22.97579727 -10.41531403 22.96595306 -9.19067383 22.95581055 C-8.20444283 22.94595375 -8.20444283 22.94595375 -7.19828796 22.93589783 C-5.0189094 22.91617265 -2.8396003 22.90449381 -0.66015625 22.89453125 C0.08940149 22.89045572 0.83895924 22.8863802 1.61123085 22.88218117 C5.5913223 22.86130733 9.57137932 22.8470206 13.55151367 22.83764648 C17.62046481 22.82667842 21.68885437 22.79239641 25.75760937 22.75247478 C28.91938628 22.72602043 32.08103642 22.71792871 35.2429142 22.71436501 C36.73970575 22.70955982 38.23649406 22.69812465 39.73317528 22.67932701 C53.36125111 22.51903388 66.64411556 24.40586816 78.796875 31.0078125 C79.78820435 31.52335693 79.78820435 31.52335693 80.79956055 32.04931641 C85.66750632 34.6392246 90.0501463 37.61441458 94.296875 41.1328125 C95.286875 41.7928125 96.276875 42.4528125 97.296875 43.1328125 C97.296875 34.5528125 97.296875 25.9728125 97.296875 17.1328125 C95.646875 16.8028125 93.996875 16.4728125 92.296875 16.1328125 C89.81368756 15.06498585 87.36932511 13.96340797 84.921875 12.8203125 C68.83736744 5.56389225 53.47391515 3.97396186 35.98046875 3.96484375 C34.51416493 3.96162213 33.04786141 3.95825741 31.58155823 3.95475769 C28.52482356 3.94880687 25.468117 3.94691378 22.41137695 3.94750977 C18.51587029 3.94761158 14.62054508 3.93392103 10.72508144 3.91673756 C7.7025725 3.9055662 4.68010689 3.90359207 1.65757942 3.90411949 C0.22201979 3.90294859 -1.2135413 3.8985775 -2.64908028 3.89078712 C-17.84545262 3.81598153 -29.46489191 6.03365359 -40.953125 16.6328125 C-49.94773715 26.1851192 -53.67760763 37.43957034 -55.703125 50.1328125 C-56.033125 50.1328125 -56.363125 50.1328125 -56.703125 50.1328125 C-57.77728968 40.8233853 -55.75487388 35.14568406 -51.234375 27.26171875 C-49.72042644 24.16816571 -49.34996412 22.50676016 -49.703125 19.1328125 C-48.775 19.0090625 -48.775 19.0090625 -47.828125 18.8828125 C-45.5684617 18.35375272 -45.5684617 18.35375272 -44.765625 16.3828125 C-44.415 15.6403125 -44.064375 14.8978125 -43.703125 14.1328125 C-32.06055231 0.77809677 -16.59230347 -0.02675448 0 0 Z " fill="#3AAAD5" transform="translate(116.703125,63.8671875)"/>
<path d="M0 0 C1.0952449 0.00081573 1.0952449 0.00081573 2.21261597 0.00164795 C13.5494394 0.0404594 24.1199489 0.79767256 34.9375 4.375 C35.59347168 4.57867188 36.24944336 4.78234375 36.92529297 4.9921875 C45.27057185 7.62177209 52.95467436 11.24308227 60.625 15.4375 C61.37974609 15.84887207 62.13449219 16.26024414 62.91210938 16.68408203 C67.24666574 19.14209266 70.59373588 21.67509532 73.9375 25.375 C71.5943787 25.11938677 69.25906597 24.78229228 66.9375 24.375 C66.6075 23.715 66.2775 23.055 65.9375 22.375 C61.53779786 20.17514893 56.72254178 19.3549432 51.9375 18.375 C51.6075 17.055 51.2775 15.735 50.9375 14.375 C49.20893541 13.8936659 47.47961929 13.41503029 45.75 12.9375 C44.78707031 12.67066406 43.82414063 12.40382813 42.83203125 12.12890625 C40.97516105 11.64526799 39.10473373 11.20964497 37.22265625 10.8359375 C34.62515629 10.31199734 32.39279551 9.36881009 29.9375 8.375 C24.58141674 6.62397278 19.51515093 5.84825523 13.9375 5.375 C12.92171875 5.2821875 11.9059375 5.189375 10.859375 5.09375 C7.55351975 4.81173391 4.24908119 4.5784827 0.9375 4.375 C0.05320312 4.31957031 -0.83109375 4.26414062 -1.7421875 4.20703125 C-11.52466848 3.89482441 -21.6338776 5.83936525 -31.0625 8.375 C-31.0625 9.035 -31.0625 9.695 -31.0625 10.375 C-32.01125 10.2925 -32.96 10.21 -33.9375 10.125 C-39.7094201 10.11324456 -45.57789185 12.49877254 -50.15234375 15.953125 C-52.0625 17.375 -52.0625 17.375 -55.4375 18.3125 C-59.32879376 19.45305162 -61.94451659 20.78935522 -65.0625 23.375 C-65.0625 24.695 -65.0625 26.015 -65.0625 27.375 C-66.4546875 27.5915625 -66.4546875 27.5915625 -67.875 27.8125 C-75.67886335 30.01481727 -82.10231146 36.57188281 -86.0625 43.375 C-87.8515625 45.0703125 -87.8515625 45.0703125 -89.6875 46.5 C-92.30610354 48.54405761 -92.97130392 49.10141177 -94.0625 52.375 C-95.0525 53.035 -96.0425 53.695 -97.0625 54.375 C-98.062219 56.11644601 -99.05984062 57.85940327 -100.0234375 59.62109375 C-101.40692599 61.95638071 -102.95274281 63.67358291 -105.0625 65.375 C-106.0525 65.375 -107.0425 65.375 -108.0625 65.375 C-106.70913063 60.53213231 -104.56852648 56.77060634 -101.625 52.75 C-101.18325439 52.14244873 -100.74150879 51.53489746 -100.28637695 50.90893555 C-80.41294238 24.07892494 -52.30819148 6.58963773 -19.27270508 0.78515625 C-12.87237647 -0.0325905 -6.44191391 -0.01804432 0 0 Z " fill="#6EC3E0" transform="translate(137.0625,19.625)"/>
<path d="M0 0 C23.58901397 13.34201322 38.94356902 41.58537461 46 67 C52.85392578 95.54547112 49.21588991 125.57295816 37 152 C36.67 152 36.34 152 36 152 C36 150.35 36 148.7 36 147 C36.66 147 37.32 147 38 147 C38 144.69 38 142.38 38 140 C38.66 140 39.32 140 40 140 C39.85691406 139.11248047 39.85691406 139.11248047 39.7109375 138.20703125 C39.04484241 133.45916744 38.75855548 130.37081681 41 126 C41.51162445 124.65018231 42.01069605 123.29556811 42.5 121.9375 C43.23397769 119.92305037 43.9490112 118.08823861 45.02294922 116.22973633 C46.21813096 113.50220138 46.31918054 111.33234323 46.4140625 108.359375 C46.45273437 107.28945312 46.49140625 106.21953125 46.53125 105.1171875 C46.5621875 104.00601563 46.593125 102.89484375 46.625 101.75 C46.68300781 100.06003906 46.68300781 100.06003906 46.7421875 98.3359375 C46.83637336 95.55745452 46.92199586 92.77897666 47 90 C46.34 90 45.68 90 45 90 C44.01 82.575 44.01 82.575 43 75 C42.34 75 41.68 75 41 75 C40.26919734 73.02253397 39.60578253 71.01927511 39 69 C39.33 68.34 39.66 67.68 40 67 C40.66 67 41.32 67 42 67 C42 66.01 42 65.02 42 64 C41.01 64 40.02 64 39 64 C39.33 62.35 39.66 60.7 40 59 C39.01 58.505 39.01 58.505 38 58 C37.50951225 56.34539326 37.02655893 54.6880321 36.58935547 53.01855469 C35.5832321 49.57256129 34.07446672 46.37364188 32.5625 43.125 C32.26279297 42.44953125 31.96308594 41.7740625 31.65429688 41.078125 C30.85202321 39.34479621 29.93303898 37.66658633 29 36 C27.515 35.505 27.515 35.505 26 35 C24.61328125 33.2578125 24.61328125 33.2578125 23.3125 31.125 C22.87550781 30.42632812 22.43851563 29.72765625 21.98828125 29.0078125 C21 27 21 27 21 24 C20.01 24 19.02 24 18 24 C17.505 21.525 17.505 21.525 17 19 C15.02 18.34 13.04 17.68 11 17 C11 16.34 11 15.68 11 15 C10.34 15 9.68 15 9 15 C8.67 13.35 8.34 11.7 8 10 C6.68 10.33 5.36 10.66 4 11 C4 10.34 4 9.68 4 9 C3.34 8.67 2.68 8.34 2 8 C2.33 7.34 2.66 6.68 3 6 C2.34 6 1.68 6 1 6 C0.67 4.02 0.34 2.04 0 0 Z " fill="#81C0D9" transform="translate(211,45)"/>
<path d="M0 0 C0.8125 2.1875 0.8125 2.1875 1 4 C1.66 4 2.32 4 3 4 C3 4.66 3 5.32 3 6 C3.9075 5.896875 4.815 5.79375 5.75 5.6875 C9 6 9 6 11.375 8.5 C11.91125 9.325 12.4475 10.15 13 11 C8.85065779 11.73766084 6.89616008 11.54148264 3.2265625 9.32421875 C0.43170004 7.27490271 -2.29515119 5.16636436 -5 3 C-6.32 2.01 -7.64 1.02 -9 0 C-8.67 8.25 -8.34 16.5 -8 25 C2.27318819 30.05238763 11.81276896 34.43493681 23 37 C23.61588486 37.16753784 24.23176971 37.33507568 24.86631775 37.50769043 C33.70566317 39.65404129 42.66372353 39.25061426 51.6953125 39.1953125 C53.49705853 39.19157617 55.29880662 39.18873213 57.10055542 39.18673706 C61.8121515 39.17914942 66.52362167 39.15954347 71.23516846 39.1373291 C76.05519915 39.11676505 80.87525046 39.10771289 85.6953125 39.09765625 C95.13026325 39.07629239 104.5651211 39.04221615 114 39 C114 39.66 114 40.32 114 41 C110.05400367 42.91662679 108.20329548 42.86417835 104 42 C101.74828759 41.91911109 99.49435387 41.89240774 97.24121094 41.90234375 C96.25230614 41.90453415 96.25230614 41.90453415 95.24342346 41.9067688 C93.81824743 41.91056035 92.39307604 41.91666156 90.9679184 41.92483521 C88.70510415 41.93766597 86.44234898 41.94413223 84.17950439 41.94897461 C78.55707759 41.96230671 72.93470679 41.98644432 67.31231689 42.01037598 C62.56146806 42.03020054 57.81064073 42.04580552 53.05976105 42.05593872 C50.84365454 42.06236436 48.62763768 42.07487447 46.41156006 42.08764648 C28.30907034 42.15453517 28.30907034 42.15453517 24 40 C22.33524314 39.65725594 20.66804677 39.32635698 19 39 C17.68610616 38.67220381 16.37368931 38.33845231 15.0625 38 C10.71576132 36.90101324 6.50053967 36 2 36 C2 35.34 2 34.68 2 34 C-0.97 34.495 -0.97 34.495 -4 35 C-4.2475 34.030625 -4.495 33.06125 -4.75 32.0625 C-5.63994159 28.89314978 -5.63994159 28.89314978 -8 28.0625 C-10.07420822 27.83921553 -10.07420822 27.83921553 -12 29 C-12.89219131 24.3606052 -13.09698783 22.13142346 -11 18 C-10.75938743 15.90998921 -10.75938743 15.90998921 -10.875 13.7421875 C-10.89046875 12.95199219 -10.9059375 12.16179687 -10.921875 11.34765625 C-10.94765625 10.53167969 -10.9734375 9.71570313 -11 8.875 C-11.09329574 5.89420123 -11.09350221 2.98622674 -11 0 C-7.04085107 -3.95914893 -4.30175705 -3.37164742 0 0 Z " fill="#2B478C" transform="translate(69,179)"/>
<path d="M0 0 C0.66 0 1.32 0 2 0 C2 0.66 2 1.32 2 2 C3.6250647 1.75660889 3.6250647 1.75660889 5.28295898 1.50830078 C10.67848771 0.83769515 16.04237786 0.85652007 21.47265625 0.8671875 C22.5545372 0.86623077 23.63641815 0.86527405 24.75108337 0.86428833 C27.02782245 0.86361071 29.30456351 0.86543573 31.58129883 0.86962891 C35.05489457 0.87498827 38.52836134 0.86966698 42.00195312 0.86328125 C44.22135445 0.863942 46.4407557 0.86522311 48.66015625 0.8671875 C49.69261978 0.86516327 50.72508331 0.86313904 51.78883362 0.86105347 C65.906711 0.906711 65.906711 0.906711 68 3 C69.670625 3.2165625 69.670625 3.2165625 71.375 3.4375 C75 4 75 4 78 6 C79.155 6.268125 80.31 6.53625 81.5 6.8125 C85.7029875 8.23851362 85.97690081 9.21768412 88 13 C89.01302598 13.86792411 90.05750987 14.70001331 91.125 15.5 C94 18 94 18 94.875 20.8125 C94.91625 21.534375 94.9575 22.25625 95 23 C96.485 23.495 96.485 23.495 98 24 C98.73046875 26.06640625 98.73046875 26.06640625 99.1875 28.5625 C99.34605469 29.38878906 99.50460938 30.21507812 99.66796875 31.06640625 C99.83232422 32.02353516 99.83232422 32.02353516 100 33 C100.66 33 101.32 33 102 33 C105.36514711 45.01440953 106.47491833 54.72574286 104 67 C103.67 67 103.34 67 103 67 C102.98541748 66.38592285 102.97083496 65.7718457 102.95581055 65.13916016 C102.88038055 62.30054015 102.78404224 59.46297742 102.6875 56.625 C102.66494141 55.65949219 102.64238281 54.69398438 102.61914062 53.69921875 C102.26139223 44.00748952 99.99473215 36.05320718 95.125 27.6875 C94.79886719 27.10677734 94.47273438 26.52605469 94.13671875 25.92773438 C91.8760203 22.03528666 89.19044462 19.14042022 86 16 C86 15.34 86 14.68 86 14 C84.948125 13.62875 84.948125 13.62875 83.875 13.25 C81 12 81 12 78.25 10.0625 C69.69338254 4.63233892 61.21701434 4.55104684 51.296875 4.6015625 C49.88681895 4.59953744 48.47676392 4.59662241 47.06671143 4.59286499 C44.12835605 4.58846772 41.19027622 4.59479188 38.25195312 4.60888672 C34.49376069 4.62604089 30.73620821 4.61608231 26.97803879 4.59816933 C24.07317299 4.58731463 21.16845837 4.59078439 18.26358795 4.5985527 C16.87775851 4.60054679 15.49191514 4.59812334 14.10610199 4.59111404 C12.17067237 4.58346559 10.23519421 4.59719706 8.29980469 4.61181641 C7.20110046 4.61420319 6.10239624 4.61658997 4.97039795 4.61904907 C1.57846889 5.05406099 -0.27151403 5.96611847 -3 8 C-5.4294516 11.6441774 -5.16179575 13.71241272 -5 18 C-5.66 18 -6.32 18 -7 18 C-7.62430008 8.09790704 -7.62430008 8.09790704 -5.1875 3.8125 C-3 2 -3 2 0 2 C0 1.34 0 0.68 0 0 Z " fill="#3D96C2" transform="translate(110,107)"/>
<path d="M0 0 C0.99 0 1.98 0 3 0 C3.33 0.33 3.66 0.66 4 1 C4.5775 0.7525 5.155 0.505 5.75 0.25 C6.86375 0.12625 6.86375 0.12625 8 0 C10.625 2.4375 10.625 2.4375 13 5 C13.66 5 14.32 5 15 5 C15 5.66 15 6.32 15 7 C17.29141812 7.33503764 19.58314263 7.66798042 21.875 8 C23.15117188 8.185625 24.42734375 8.37125 25.7421875 8.5625 C28.78252468 9.04436592 28.78252468 9.04436592 31 9 C31 9.66 31 10.32 31 11 C39.87686364 12.54861172 48.55296097 13.21399185 57.5625 13.25 C58.97136475 13.26353516 58.97136475 13.26353516 60.40869141 13.27734375 C65.38326887 13.25591315 69.30269149 12.80835351 74 11 C76.375 11.375 76.375 11.375 78 12 C78.33 11.01 78.66 10.02 79 9 C79.99 9.33 80.98 9.66 82 10 C83.67667436 9.35891863 85.34089996 8.68528045 87 8 C91.62381358 6.82302927 96.31653697 5.90647671 101 5 C101.33 4.01 101.66 3.02 102 2 C104.31 2.33 106.62 2.66 109 3 C109 3.66 109 4.32 109 5 C99.15011024 9.19144245 89.43243722 12.54900571 79 15 C78.26523438 15.176521 77.53046875 15.35304199 76.7734375 15.53491211 C73.30470283 16.11659693 69.88971251 16.18160996 66.3828125 16.203125 C65.2814949 16.21167511 65.2814949 16.21167511 64.15792847 16.22039795 C62.60302149 16.229821 61.04809479 16.23637119 59.49316406 16.24023438 C57.16693782 16.24982706 54.84163997 16.2808266 52.515625 16.3125 C34.80251301 16.43892695 16.46057566 13.09445627 1 4 C0.34 3.01 -0.32 2.02 -1 1 C-0.67 0.67 -0.34 0.34 0 0 Z " fill="#5C699D" transform="translate(81,249)"/>
<path d="M0 0 C1.45335963 -0.00135122 2.90671881 -0.00329554 4.3600769 -0.00579834 C7.39764738 -0.00873374 10.43509962 -0.0045071 13.47265625 0.00488281 C17.32166152 0.01621502 21.17038583 0.00974755 25.01938057 -0.00226212 C28.02070127 -0.00957651 31.0219582 -0.00714848 34.0232811 -0.00200653 C35.43992015 -0.00069311 36.85656542 -0.00223449 38.27319717 -0.00696564 C51.19019205 -0.04061934 64.05319942 0.66382881 76.3046875 5.078125 C77.05886963 5.33875732 77.81305176 5.59938965 78.59008789 5.86791992 C83.63156495 7.65399673 88.44198212 9.72239138 93.14453125 12.28515625 C95.12702031 13.40243403 95.12702031 13.40243403 97.9921875 14.265625 C97.9921875 22.845625 97.9921875 31.425625 97.9921875 40.265625 C93.9921875 38.265625 93.9921875 38.265625 91.9921875 35.265625 C92.9821875 34.935625 93.9721875 34.605625 94.9921875 34.265625 C95.3221875 27.995625 95.6521875 21.725625 95.9921875 15.265625 C94.3421875 14.935625 92.6921875 14.605625 90.9921875 14.265625 C88.49964634 13.16304859 86.05910415 12.03192126 83.6171875 10.828125 C82.34111991 10.19916892 81.06247312 9.57541751 79.78125 8.95703125 C79.22131348 8.68060791 78.66137695 8.40418457 78.08447266 8.11938477 C71.65827575 5.49716649 65.39954595 4.70838859 58.52734375 4.15625 C56.97382957 4.03011322 56.97382957 4.03011322 55.38893127 3.90142822 C42.77346849 2.97669148 30.14681001 2.96189984 17.50415039 3.00488281 C14.06394572 3.01647226 10.62404666 3.0095548 7.1838522 2.99773788 C3.84780402 2.98876988 0.51183808 2.99504062 -2.82421875 3 C-4.04710098 2.99595154 -5.26998322 2.99190308 -6.52992249 2.98773193 C-12.44482224 3.02034833 -17.41703155 3.32772944 -23.0078125 5.265625 C-25.9453125 5.390625 -25.9453125 5.390625 -28.0078125 5.265625 C-20.936566 -1.498176 -9.02661855 -0.0298473 0 0 Z " fill="#BCECF7" transform="translate(116.0078125,66.734375)"/>
<path d="M0 0 C0.33 0 0.66 0 1 0 C1.01417969 1.09054688 1.02835938 2.18109375 1.04296875 3.3046875 C1.56285351 23.32473263 5.65524936 38.21895951 20.375 52.4375 C31.4603119 61.73985963 42.99138867 62.13547672 56.80859375 62.31640625 C58.14380995 62.33700985 59.47902012 62.35800714 60.81422424 62.37937927 C64.30755702 62.43424863 67.80094518 62.48381094 71.29437256 62.53222656 C74.86752174 62.58270023 78.44059171 62.63825049 82.01367188 62.69335938 C89.00904577 62.80051031 96.0044914 62.90204862 103 63 C103 63.33 103 63.66 103 64 C95.38651194 64.93259813 87.86859313 65.16043728 80.203125 65.16796875 C79.01072205 65.17129715 77.81831909 65.17462555 76.58978271 65.17805481 C74.08541242 65.1830898 71.5810355 65.1854642 69.07666016 65.18530273 C65.24761027 65.18750137 61.41884325 65.20572677 57.58984375 65.22460938 C55.14843848 65.22754159 52.70703185 65.22952754 50.265625 65.23046875 C49.1249054 65.23765427 47.98418579 65.24483978 46.80889893 65.25224304 C41.44017072 65.23678309 37.03662072 65.07345303 32 63 C29.24934768 62.83142517 29.24934768 62.83142517 27 63 C27 62.34 27 61.68 27 61 C25.515 60.505 25.515 60.505 24 60 C23.731875 59.34 23.46375 58.68 23.1875 58 C22.795625 57.34 22.40375 56.68 22 56 C18.94091587 55.18415432 18.94091587 55.18415432 16 55 C16 54.34 16 53.68 16 53 C14.515 53.495 14.515 53.495 13 54 C13.103125 53.278125 13.20625 52.55625 13.3125 51.8125 C12.8720263 47.84823674 10.95708831 46.53464713 8 44 C7.34 43.67 6.68 43.34 6 43 C4.68254143 39.12081644 4 36.11624135 4 32 C3.34 32 2.68 32 2 32 C-0.13120646 25.08616486 -0.23698014 18.70118424 -0.125 11.5 C-0.11597656 10.39140625 -0.10695312 9.2828125 -0.09765625 8.140625 C-0.07426167 5.42685408 -0.04148175 2.71354455 0 0 Z " fill="#31659E" transform="translate(59,112)"/>
<path d="M0 0 C1.0952449 0.00081573 1.0952449 0.00081573 2.21261597 0.00164795 C13.5494394 0.0404594 24.1199489 0.79767256 34.9375 4.375 C35.59347168 4.57867188 36.24944336 4.78234375 36.92529297 4.9921875 C45.27057185 7.62177209 52.95467436 11.24308227 60.625 15.4375 C61.37974609 15.84887207 62.13449219 16.26024414 62.91210938 16.68408203 C67.24666574 19.14209266 70.59373588 21.67509532 73.9375 25.375 C71.5943787 25.11938677 69.25906597 24.78229228 66.9375 24.375 C66.4425 23.385 66.4425 23.385 65.9375 22.375 C61.53779786 20.17514893 56.72254178 19.3549432 51.9375 18.375 C51.4425 16.395 51.4425 16.395 50.9375 14.375 C50.15503906 14.19324219 49.37257813 14.01148438 48.56640625 13.82421875 C47.55449219 13.57285156 46.54257813 13.32148437 45.5 13.0625 C44.49066406 12.81886719 43.48132813 12.57523438 42.44140625 12.32421875 C41.61511719 12.01097656 40.78882813 11.69773437 39.9375 11.375 C39.4425 9.89 39.4425 9.89 38.9375 8.375 C38.10605469 8.26285156 37.27460938 8.15070312 36.41796875 8.03515625 C33.27291346 7.43861939 30.40595686 6.53963873 27.38354492 5.50756836 C8.44045728 -0.66372933 -12.068392 1.33156601 -31.10913086 6.12133789 C-33.34559263 6.41176206 -34.92560241 6.04570944 -37.0625 5.375 C-35.62774053 4.90815852 -34.18944004 4.45220356 -32.75 4 C-31.94949219 3.74476562 -31.14898437 3.48953125 -30.32421875 3.2265625 C-20.2258956 0.59011406 -10.39927503 -0.02912921 0 0 Z " fill="#94D7EA" transform="translate(137.0625,19.625)"/>
<path d="M0 0 C17.28699439 9.77757307 28.73918136 27.2638147 37.5 44.5625 C37.83845947 45.22910645 38.17691895 45.89571289 38.52563477 46.58251953 C40.21656402 50.02741035 41.47336721 53.18922662 42 57 C38.4975224 55.2487612 37.76795681 51.05649802 36.31640625 47.56640625 C35.12572303 44.73196819 35.12572303 44.73196819 32 43 C31.505 41.824375 31.01 40.64875 30.5 39.4375 C30.005 38.303125 29.51 37.16875 29 36 C27.515 35.505 27.515 35.505 26 35 C24.61328125 33.2578125 24.61328125 33.2578125 23.3125 31.125 C22.87550781 30.42632812 22.43851563 29.72765625 21.98828125 29.0078125 C21 27 21 27 21 24 C20.01 24 19.02 24 18 24 C17.505 21.525 17.505 21.525 17 19 C15.02 18.34 13.04 17.68 11 17 C11 16.34 11 15.68 11 15 C10.34 15 9.68 15 9 15 C8.67 13.35 8.34 11.7 8 10 C6.68 10.33 5.36 10.66 4 11 C4 10.34 4 9.68 4 9 C3.34 8.67 2.68 8.34 2 8 C2.33 7.34 2.66 6.68 3 6 C2.34 6 1.68 6 1 6 C0.67 4.02 0.34 2.04 0 0 Z " fill="#42B4DA" transform="translate(211,45)"/>
<path d="M0 0 C1 3 1 3 0.36328125 4.8671875 C-3.88456684 12.98389352 -7.81115058 16.90557529 -16 21 C-18.32515795 21.11287799 -20.65361545 21.15942138 -22.98144531 21.17700195 C-23.70052063 21.18357315 -24.41959595 21.19014435 -25.16046143 21.19691467 C-27.54968371 21.2166808 -29.93884261 21.22832612 -32.328125 21.23828125 C-33.14729149 21.24235678 -33.96645798 21.2464323 -34.81044769 21.25063133 C-39.15780892 21.2715199 -43.50513846 21.28580171 -47.85253906 21.29516602 C-52.31068098 21.30615312 -56.76831302 21.34045411 -61.2262764 21.38033772 C-64.67878029 21.40670922 -68.13116742 21.41487654 -71.58376312 21.41844749 C-73.22454976 21.42327163 -74.86533268 21.43476393 -76.50601959 21.45348549 C-86.76213625 21.56310958 -96.42664927 21.20058475 -106 17 C-106.66 16.01 -107.32 15.02 -108 14 C-107.0409375 14.2165625 -107.0409375 14.2165625 -106.0625 14.4375 C-102.06155212 15.17236798 -98.04495104 15.58581111 -94 16 C-94 16.66 -94 17.32 -94 18 C-91.36 18 -88.72 18 -86 18 C-85.67 17.34 -85.34 16.68 -85 16 C-84.34 16.66 -83.68 17.32 -83 18 C-81.33394172 18.0450286 -79.66621616 18.03874921 -78 18 C-77.13375 18.185625 -76.2675 18.37125 -75.375 18.5625 C-72.86351334 19.22276055 -72.86351334 19.22276055 -70 18 C-70 18.66 -70 19.32 -70 20 C-69.29101562 19.9278125 -68.58203125 19.855625 -67.8515625 19.78125 C-58.21419551 18.94118896 -48.64574302 18.93342367 -38.97705078 19.03710938 C-37.34678955 19.04967773 -37.34678955 19.04967773 -35.68359375 19.0625 C-34.70962646 19.07410156 -33.73565918 19.08570313 -32.73217773 19.09765625 C-29.20366654 18.97153665 -26.14098214 18.66250576 -23.0625 16.875 C-21 16 -21 16 -17.9375 16.5625 C-16.968125 16.706875 -15.99875 16.85125 -15 17 C-13.22809091 15.64555699 -13.22809091 15.64555699 -12 14 C-11.34 14 -10.68 14 -10 14 C-9.67 13.01 -9.34 12.02 -9 11 C-7.68 11 -6.36 11 -5 11 C-4.731875 10.113125 -4.46375 9.22625 -4.1875 8.3125 C-3.08289181 5.23122452 -1.77150856 2.73778595 0 0 Z " fill="#355D94" transform="translate(190,177)"/>
<path d="M0 0 C8.05860984 -0.1395718 16.11670727 -0.24590677 24.17623043 -0.31087303 C27.91943767 -0.34206821 31.66181266 -0.38431854 35.40454102 -0.45263672 C39.02265554 -0.51826019 42.63997426 -0.55379469 46.25863838 -0.56926346 C47.63291502 -0.58027378 49.00715246 -0.60177409 50.38108635 -0.63438034 C59.2473705 -0.83625516 65.33775056 -0.15192796 72 6 C80.14480026 14.43522326 82.35124825 21.70769955 82.25 33.25 C82.26160156 34.59578125 82.26160156 34.59578125 82.2734375 35.96875 C82.27085937 36.82984375 82.26828125 37.6909375 82.265625 38.578125 C82.26336914 39.35575195 82.26111328 40.13337891 82.25878906 40.93457031 C82 43 82 43 80 46 C79.97494385 45.35450195 79.9498877 44.70900391 79.92407227 44.04394531 C79.80785567 41.11244106 79.68524558 38.18123783 79.5625 35.25 C79.52318359 34.23421875 79.48386719 33.2184375 79.44335938 32.171875 C79.40146484 31.1921875 79.35957031 30.2125 79.31640625 29.203125 C79.27974854 28.30239258 79.24309082 27.40166016 79.20532227 26.47363281 C79.01693593 24.20403661 78.62633499 22.18437113 78 20 C77.34 20 76.68 20 76 20 C76 18.35 76 16.7 76 15 C75.34 15 74.68 15 74 15 C73.505 13.515 73.505 13.515 73 12 C70.75127164 10.03957015 68.67191034 8.33595517 66 7 C66 6.01 66 5.02 66 4 C57.6743856 3.23238393 49.3707119 2.75288668 41.015625 2.46484375 C39.83401794 2.42186661 38.65241089 2.37888947 37.43499756 2.33460999 C33.70675424 2.19960589 29.97838644 2.06848563 26.25 1.9375 C23.70311571 1.84596122 21.1562406 1.75416673 18.609375 1.66210938 C12.40635293 1.43845238 6.20322426 1.21797321 0 1 C0 0.67 0 0.34 0 0 Z " fill="#4890BA" transform="translate(111,131)"/>
<path d="M0 0 C1.39818111 0.00373894 2.79636487 0.00658174 4.19454956 0.00857544 C7.84085567 0.01614267 11.48699764 0.03573004 15.13323975 0.0579834 C18.86744976 0.07859241 22.60168678 0.08760906 26.3359375 0.09765625 C33.63809495 0.11898389 40.94011806 0.15303418 48.2421875 0.1953125 C48.2421875 0.5253125 48.2421875 0.8553125 48.2421875 1.1953125 C47.18222313 1.20744278 47.18222313 1.20744278 46.10084534 1.21981812 C39.40765657 1.29809395 32.71465406 1.38548112 26.02171421 1.48283958 C22.581655 1.53256589 19.14162302 1.57889568 15.70141602 1.6171875 C11.73697333 1.66146886 7.7728274 1.72101952 3.80859375 1.78125 C2.58636612 1.79280121 1.36413849 1.80435242 0.10487366 1.81625366 C-13.79738325 2.05427853 -24.58835733 5.0822188 -35.0078125 14.6953125 C-44.00242465 24.2476192 -47.73229513 35.50207034 -49.7578125 48.1953125 C-50.0878125 48.1953125 -50.4178125 48.1953125 -50.7578125 48.1953125 C-51.83197718 38.8858853 -49.80956138 33.20818406 -45.2890625 25.32421875 C-43.77511394 22.23066571 -43.40465162 20.56926016 -43.7578125 17.1953125 C-42.8296875 17.0715625 -42.8296875 17.0715625 -41.8828125 16.9453125 C-39.6231492 16.41625272 -39.6231492 16.41625272 -38.8203125 14.4453125 C-38.4696875 13.7028125 -38.1190625 12.9603125 -37.7578125 12.1953125 C-27.31318089 0.21470566 -15.02574528 -0.11933585 0 0 Z " fill="#429EC7" transform="translate(110.7578125,65.8046875)"/>
<path d="M0 0 C0 1.32 0 2.64 0 4 C-1.3921875 4.2165625 -1.3921875 4.2165625 -2.8125 4.4375 C-10.61636335 6.63981727 -17.03981146 13.19688281 -21 20 C-22.7890625 21.6953125 -22.7890625 21.6953125 -24.625 23.125 C-27.24360354 25.16905761 -27.90880392 25.72641177 -29 29 C-29.99 29.66 -30.98 30.32 -32 31 C-32.999719 32.74144601 -33.99734062 34.48440327 -34.9609375 36.24609375 C-36.34442599 38.58138071 -37.89024281 40.29858291 -40 42 C-40.99 42 -41.98 42 -43 42 C-41.64215099 37.17452582 -39.53221517 33.34797267 -36.625 29.3125 C-36.18655762 28.7030957 -35.74811523 28.09369141 -35.29638672 27.46582031 C-30.99776573 21.68902934 -26.05185867 16.94849939 -20.56298828 12.31884766 C-18.94260799 10.95157269 -17.34405609 9.56134602 -15.74609375 8.16796875 C-3.95191073 -1.97595536 -3.95191073 -1.97595536 0 0 Z " fill="#2CA1D4" transform="translate(72,43)"/>
<path d="M0 0 C0.99 0.99 0.99 0.99 2 2 C1.01 2.33 0.02 2.66 -1 3 C-0.01 4.98 0.98 6.96 2 9 C1.01 8.67 0.02 8.34 -1 8 C-4.24045872 9.66030012 -4.24045872 9.66030012 -7 12 C-7 12.99 -7 13.98 -7 15 C-7.66 15 -8.32 15 -9 15 C-9.33 15.99 -9.66 16.98 -10 18 C-10.99 17.01 -10.99 17.01 -12 16 C-12.680625 16.45375 -13.36125 16.9075 -14.0625 17.375 C-19.90004746 20.60428157 -25.56608119 21.2924254 -32.13842773 21.22705078 C-32.91973557 21.22734283 -33.7010434 21.22763489 -34.50602722 21.22793579 C-37.06533262 21.22655248 -39.62433978 21.21103885 -42.18359375 21.1953125 C-43.96720724 21.19157881 -45.7508228 21.18873352 -47.53443909 21.18673706 C-52.21155536 21.17912863 -56.88854592 21.15950429 -61.56561279 21.1373291 C-66.34515686 21.11681037 -71.12472139 21.10772249 -75.90429688 21.09765625 C-85.26958625 21.07625562 -94.63478264 21.04215359 -104 21 C-104 20.67 -104 20.34 -104 20 C-102.6393618 19.99120064 -102.6393618 19.99120064 -101.25123596 19.98222351 C-92.67435642 19.92415671 -84.09773343 19.85200031 -75.52110386 19.76428509 C-71.11247675 19.71968678 -66.70393981 19.68040786 -62.29516602 19.65356445 C-58.03504318 19.62742575 -53.7752693 19.58694985 -49.51536369 19.53681374 C-47.89564311 19.52021612 -46.27586228 19.50865782 -44.6560688 19.50238609 C-33.66860213 19.45556545 -24.72359857 18.79623802 -15.1875 12.625 C-14.29417969 12.06039062 -13.40085937 11.49578125 -12.48046875 10.9140625 C-9.86412115 9.06677596 -9.86412115 9.06677596 -7.92578125 6.2734375 C-7.29027344 5.52320313 -6.65476562 4.77296875 -6 4 C-4.68 4 -3.36 4 -2 4 C-2 3.34 -2 2.68 -2 2 C-1.34 2 -0.68 2 0 2 C0 1.34 0 0.68 0 0 Z " fill="#5578AC" transform="translate(206,198)"/>
<path d="M0 0 C1.99932581 0.66868585 3.99907128 1.33612598 6 2 C4.3125 3.125 4.3125 3.125 2 4 C-0.3125 3.25 -0.3125 3.25 -3 2 C-8.35608326 0.24897278 -13.42234907 -0.52674477 -19 -1 C-20.01578125 -1.0928125 -21.0315625 -1.185625 -22.078125 -1.28125 C-25.38398025 -1.56326609 -28.68841881 -1.7965173 -32 -2 C-33.32644531 -2.08314453 -33.32644531 -2.08314453 -34.6796875 -2.16796875 C-44.46216848 -2.48017559 -54.5713776 -0.53563475 -64 2 C-64 2.66 -64 3.32 -64 4 C-65.65 3.67 -67.3 3.34 -69 3 C-68.67 2.34 -68.34 1.68 -68 1 C-67.34 1 -66.68 1 -66 1 C-66 0.34 -66 -0.32 -66 -1 C-43.8021351 -6.32939093 -21.73201472 -7.8377758 0 0 Z " fill="#3FAFD5" transform="translate(170,26)"/>
<path d="M0 0 C11.87435009 0.90789799 11.87435009 0.90789799 17 3 C18.5625 5.3125 18.5625 5.3125 20 8 C21.01302598 8.86792411 22.05750987 9.70001331 23.125 10.5 C26 13 26 13 26.875 15.8125 C26.91625 16.534375 26.9575 17.25625 27 18 C27.99 18.33 28.98 18.66 30 19 C30.73046875 21.06640625 30.73046875 21.06640625 31.1875 23.5625 C31.34605469 24.38878906 31.50460938 25.21507812 31.66796875 26.06640625 C31.83232422 27.02353516 31.83232422 27.02353516 32 28 C32.66 28 33.32 28 34 28 C37.36514711 40.01440953 38.47491833 49.72574286 36 62 C35.67 62 35.34 62 35 62 C34.98541748 61.38592285 34.97083496 60.7718457 34.95581055 60.13916016 C34.88038055 57.30054015 34.78404224 54.46297742 34.6875 51.625 C34.65366211 50.17673828 34.65366211 50.17673828 34.61914062 48.69921875 C34.26139223 39.00748952 31.99473215 31.05320718 27.125 22.6875 C26.63580078 21.81641602 26.63580078 21.81641602 26.13671875 20.92773438 C23.8760203 17.03528666 21.19044462 14.14042022 18 11 C18 10.34 18 9.68 18 9 C16.948125 8.62875 16.948125 8.62875 15.875 8.25 C13 7 13 7 10.125 5 C6.66919213 2.78828296 3.95461663 1.94910799 0 1 C0 0.67 0 0.34 0 0 Z " fill="#41A0C9" transform="translate(178,112)"/>
<path d="M0 0 C0.33 0 0.66 0 1 0 C1.01458252 0.86802246 1.02916504 1.73604492 1.04418945 2.63037109 C1.10520111 5.84738879 1.17934391 9.06375663 1.26245117 12.28027344 C1.29572873 13.67306089 1.32375197 15.06598411 1.34643555 16.45898438 C1.37992689 18.45991378 1.43381305 20.46046921 1.48828125 22.4609375 C1.51446533 23.66540527 1.54064941 24.86987305 1.56762695 26.11083984 C1.71031006 27.0642627 1.85299316 28.01768555 2 29 C2.99 29.66 3.98 30.32 5 31 C4.34 31 3.68 31 3 31 C3 31.66 3 32.32 3 33 C3.66 33 4.32 33 5 33 C4.95875 34.010625 4.9175 35.02125 4.875 36.0625 C4.83412163 39.92808281 4.83412163 39.92808281 5.9375 43.21875 C7.08537351 47.30382926 7.65574993 51.23348094 8.125 55.4375 C8.21136719 56.16904297 8.29773437 56.90058594 8.38671875 57.65429688 C8.59628393 59.43560094 8.79887868 61.21772281 9 63 C6.94630675 60.94630675 6.46910037 59.93049018 5.5625 57.25390625 C5.30815186 56.50455811 5.05380371 55.75520996 4.79174805 54.9831543 C4.53047119 54.18433838 4.26919434 53.38552246 4 52.5625 C3.7316333 51.74499268 3.4632666 50.92748535 3.18676758 50.08520508 C-1.79710408 34.55917778 -4.79242431 15.87490551 0 0 Z " fill="#466BA2" transform="translate(16,130)"/>
<path d="M0 0 C0.993769 -0.00262848 0.993769 -0.00262848 2.00761414 -0.00531006 C4.1778736 -0.00967994 6.34805039 -0.00680955 8.51831055 -0.00341797 C10.03191646 -0.004092 11.54552227 -0.00506286 13.05912781 -0.00631714 C16.22041868 -0.00778716 19.38168119 -0.00566043 22.54296875 -0.00097656 C26.60299315 0.0047448 30.66295179 0.0014222 34.72297382 -0.00454903 C37.84295656 -0.00815261 40.96292353 -0.00701742 44.08290672 -0.00442123 C45.58089391 -0.00375267 47.07888252 -0.00457796 48.57686806 -0.00690079 C50.66196143 -0.00942663 52.74694603 -0.00558888 54.83203125 0 C56.0197261 0.00079559 57.20742096 0.00159119 58.43110657 0.00241089 C61.0925293 0.12939453 61.0925293 0.12939453 62.0925293 1.12939453 C63.44000014 1.36014535 64.79630495 1.54092516 66.1550293 1.69189453 C67.4544043 1.83626953 68.7537793 1.98064453 70.0925293 2.12939453 C68.7725293 3.44939453 67.4525293 4.76939453 66.0925293 6.12939453 C65.1025293 5.13939453 65.1025293 5.13939453 64.0925293 4.12939453 C55.07570224 2.49941473 45.61974296 2.99690444 36.4831543 3.03173828 C35.02056935 3.03360861 33.55798376 3.0350296 32.09539795 3.036026 C28.28806763 3.03980283 24.48077685 3.04959044 20.67346191 3.06072998 C16.77148981 3.07104941 12.86951118 3.07554594 8.9675293 3.08056641 C1.34251148 3.0912182 -6.28247403 3.10823478 -13.9074707 3.12939453 C-13.5774707 2.46939453 -13.2474707 1.80939453 -12.9074707 1.12939453 C-8.59628766 0.1184316 -4.41391614 0.00294685 0 0 Z " fill="#349AC5" transform="translate(108.907470703125,87.87060546875)"/>
<path d="M0 0 C2.31 0.33 4.62 0.66 7 1 C7 1.66 7 2.32 7 3 C4.81707637 3.92890367 2.62940782 4.84270283 0.4375 5.75 C-0.44711914 6.12898438 -0.44711914 6.12898438 -1.34960938 6.515625 C-14.88207684 12.06740653 -26.9793552 13.5681242 -41.4375 13.25 C-43.05531599 13.22986862 -44.67315667 13.21162979 -46.29101562 13.1953125 C-50.19463827 13.15192332 -54.09703311 13.08328038 -58 13 C-58 12.67 -58 12.34 -58 12 C-56.95658447 11.970271 -56.95658447 11.970271 -55.89208984 11.93994141 C-52.71936679 11.84427876 -49.54726513 11.73476696 -46.375 11.625 C-44.73337891 11.57859375 -44.73337891 11.57859375 -43.05859375 11.53125 C-37.65309824 11.33468653 -33.08626978 11.00773807 -28 9 C-25.625 9.375 -25.625 9.375 -24 10 C-23.67 9.01 -23.34 8.02 -23 7 C-22.01 7.33 -21.02 7.66 -20 8 C-18.32332564 7.35891863 -16.65910004 6.68528045 -15 6 C-10.37618642 4.82302927 -5.68346303 3.90647671 -1 3 C-0.67 2.01 -0.34 1.02 0 0 Z " fill="#586CA0" transform="translate(183,251)"/>
<path d="M0 0 C0.66 0 1.32 0 2 0 C2.433125 0.9590625 2.433125 0.9590625 2.875 1.9375 C3.82823451 4.15206079 3.82823451 4.15206079 6 5 C6.33 5.99 6.66 6.98 7 8 C9.31 8.33 11.62 8.66 14 9 C13.67 9.99 13.34 10.98 13 12 C14.65 13.65 16.3 15.3 18 17 C18.66 16.67 19.32 16.34 20 16 C23 21.75 23 21.75 23 24 C23.7425 24.12375 24.485 24.2475 25.25 24.375 C27.80141485 24.95486701 29.7267573 25.73708739 32 27 C32 27.66 32 28.32 32 29 C22.84134751 29.17280476 17.65626614 23.42770354 11.36865234 17.44873047 C1.85055904 8.27583856 1.85055904 8.27583856 -1 4 C-0.625 1.8125 -0.625 1.8125 0 0 Z " fill="#505D97" transform="translate(42,216)"/>
<path d="M0 0 C0 0.99 0 1.98 0 3 C-4.43692711 7.12000374 -8.71983581 7.1262817 -14.57275391 7.14526367 C-15.54904503 7.15030159 -15.54904503 7.15030159 -16.5450592 7.15544128 C-18.68891321 7.16491388 -20.83268889 7.1668921 -22.9765625 7.16796875 C-24.46821118 7.17118239 -25.95985955 7.17454654 -27.45150757 7.17805481 C-30.57347343 7.18403574 -33.69541163 7.18589562 -36.81738281 7.18530273 C-40.82360792 7.18520082 -44.82965695 7.19888732 -48.83584023 7.21607494 C-51.91383688 7.2271716 -54.99179053 7.22922272 -58.06980515 7.22869301 C-59.54743434 7.22987534 -61.02506457 7.2343112 -62.5026741 7.24202538 C-64.56392197 7.25178439 -66.62478151 7.24896447 -68.68603516 7.24291992 C-70.4466478 7.24505745 -70.4466478 7.24505745 -72.24282837 7.24723816 C-75 7 -75 7 -77 5 C-75.70453751 4.99120064 -75.70453751 4.99120064 -74.38290405 4.98222351 C-66.23184781 4.92424714 -58.08106415 4.85214206 -49.93027306 4.76428509 C-45.74015614 4.7196152 -41.5501357 4.68035177 -37.35986328 4.65356445 C-33.3137093 4.62749751 -29.26792721 4.58707152 -25.22200394 4.53681374 C-23.6807481 4.52016786 -22.13942798 4.50863939 -20.59809494 4.50238609 C-18.43398075 4.4927198 -16.27081307 4.46463264 -14.10693359 4.43237305 C-12.26160538 4.41571846 -12.26160538 4.41571846 -10.3789978 4.39872742 C-6.47965626 3.93859857 -2.85456634 2.85456634 0 0 Z " fill="#CDE1F0" transform="translate(181,193)"/>
<path d="M0 0 C0.65748734 -0.00671722 1.31497467 -0.01343445 1.99238586 -0.02035522 C4.17183984 -0.03938339 6.35098559 -0.04326429 8.53051758 -0.04541016 C10.05731835 -0.05184373 11.5841179 -0.0585725 13.11091614 -0.06558228 C16.32136886 -0.07757337 19.53171396 -0.08126212 22.7421875 -0.08007812 C26.81117991 -0.07987687 30.87945848 -0.10696643 34.9482832 -0.14162254 C38.11008205 -0.16414042 41.27171729 -0.16790788 44.43358803 -0.16685867 C45.9303663 -0.16918564 47.42715118 -0.17784063 48.92384911 -0.19352341 C62.68894943 -0.32403639 75.95814349 1.65861222 88.23754883 8.29052734 C89.22368164 8.78552734 89.22368164 8.78552734 90.22973633 9.29052734 C93.89267178 11.18872871 96.75318259 13.19710291 99.48754883 16.29052734 C96.45701868 15.1174189 93.49987078 13.83736694 90.55004883 12.47802734 C84.34445066 9.69076715 77.90930205 7.51941466 71.48754883 5.29052734 C71.48754883 4.63052734 71.48754883 3.97052734 71.48754883 3.29052734 C70.18817383 3.31115234 68.88879883 3.33177734 67.55004883 3.35302734 C66.1958925 3.37452189 64.839988 3.36200933 63.48754883 3.29052734 C62.99254883 2.79552734 62.99254883 2.79552734 62.48754883 2.29052734 C60.24824997 2.19616205 58.00593133 2.17310407 55.76464844 2.17700195 C55.06224533 2.17685593 54.35984222 2.1767099 53.63615417 2.17655945 C51.30403604 2.17725862 48.97199683 2.18505117 46.63989258 2.19287109 C45.02706445 2.19473526 43.41423576 2.19615917 41.80140686 2.19715881 C37.54839526 2.20098411 33.29541759 2.21081449 29.04241943 2.22186279 C24.70577453 2.23207666 20.36912416 2.23665638 16.0324707 2.24169922 C7.51748114 2.25243676 -0.9974808 2.26951331 -9.51245117 2.29052734 C-5.916814 -0.1065641 -4.27604543 0.02742576 0 0 Z " fill="#62B5D3" transform="translate(107.512451171875,86.70947265625)"/>
<path d="M0 0 C1.26496307 -0.00637985 2.52992615 -0.0127597 3.83322144 -0.01933289 C5.21579958 -0.02086171 6.59837823 -0.02197559 7.98095703 -0.02270508 C9.39958734 -0.02591891 10.81821731 -0.02928308 12.23684692 -0.03279114 C15.21096566 -0.03877887 18.18505535 -0.04063143 21.15917969 -0.04003906 C24.96448275 -0.03993751 28.76959892 -0.05358386 32.57485771 -0.07081127 C35.5054306 -0.08194725 38.43595856 -0.08395777 41.36655045 -0.08342934 C42.76913217 -0.08460727 44.17171513 -0.08901856 45.57427597 -0.0967617 C47.53907608 -0.10659237 49.50393105 -0.10241136 51.46875 -0.09765625 C53.14395218 -0.09979378 53.14395218 -0.09979378 54.85299683 -0.10197449 C57.90643194 0.14876702 60.10424803 0.85134828 62.86376953 2.14526367 C59.36220576 3.22868415 56.15917668 3.24748929 52.50634766 3.21118164 C51.21821167 3.20142303 49.93007568 3.19166443 48.60290527 3.18161011 C47.9173204 3.17424709 47.23173553 3.16688408 46.52537537 3.15929794 C44.37323747 3.1372278 42.22118822 3.12318013 40.06896973 3.11160278 C33.95145574 3.07804889 27.83408922 3.03631965 21.71679688 2.97387695 C17.97098666 2.93621395 14.2253262 2.91320308 10.47935486 2.89957047 C9.05358191 2.89152171 7.62782898 2.87792045 6.2021637 2.85863876 C4.20864195 2.83214081 2.21488208 2.82590295 0.22119141 2.82055664 C-0.91257935 2.8108786 -2.0463501 2.80120056 -3.21447754 2.79122925 C-6.47925513 3.18682863 -7.61954202 4.15289246 -10.13623047 6.14526367 C-11.12623047 5.81526367 -12.11623047 5.48526367 -13.13623047 5.14526367 C-8.8908526 0.60710112 -6.12210615 0.02092541 0 0 Z " fill="#CBF0FC" transform="translate(118.13623046875,110.854736328125)"/>
<path d="M0 0 C3.14002815 3.54959704 3.13398634 4.80391802 4 10 C26.77 10.66 49.54 11.32 73 12 C73.495 13.485 73.495 13.485 74 15 C73.46890121 14.83759827 72.93780243 14.67519653 72.39060974 14.50787354 C69.46076941 13.88544306 66.74694771 13.87527075 63.75024414 13.87402344 C62.4853566 13.87021667 61.22046906 13.86640991 59.91725159 13.86248779 C59.24408968 13.86229393 58.57092777 13.86210007 57.87736702 13.86190033 C55.03628617 13.8584711 52.19543139 13.83709504 49.3544302 13.81666946 C44.06999549 13.77871022 38.78580754 13.74738683 33.5012207 13.74951172 C29.81988923 13.75029943 26.13939367 13.72691643 22.45828056 13.6876297 C21.05853472 13.67718133 19.65869227 13.67563723 18.2589283 13.68328094 C16.29898129 13.69291831 14.33895688 13.66892536 12.37915039 13.64355469 C10.70847252 13.63808624 10.70847252 13.63808624 9.00404358 13.63250732 C5.04832626 12.79962321 3.5359271 11.07275578 1 8 C0.12706522 5.23651035 0.14914178 2.93312175 0 0 Z " fill="#D8F6FE" transform="translate(104,118)"/>
<path d="M0 0 C2.59654239 2.29324257 3.77597937 4.42692848 5.0625 7.625 C6.24652127 11.01267992 6.24652127 11.01267992 9 13 C12.25417895 20.15900564 12.37903645 27.40460757 12.1875 35.125 C12.17396484 36.176875 12.16042969 37.22875 12.14648438 38.3125 C12.11153356 40.87555954 12.06247682 43.43748913 12 46 C11.67 46 11.34 46 11 46 C10.34 41.05 9.68 36.1 9 31 C8.34 31 7.68 31 7 31 C6.26919734 29.02253397 5.60578253 27.01927511 5 25 C5.33 24.34 5.66 23.68 6 23 C6.66 23 7.32 23 8 23 C8 22.01 8 21.02 8 20 C7.01 20 6.02 20 5 20 C5.33 18.35 5.66 16.7 6 15 C5.34 14.67 4.68 14.34 4 14 C3.2530837 11.66588655 2.60530142 9.36998786 2 7 C1.62902885 5.68635558 1.25423076 4.37378383 0.875 3.0625 C0.58625 2.051875 0.2975 1.04125 0 0 Z " fill="#62BCDE" transform="translate(245,89)"/>
<path d="M0 0 C1.32 0.33 2.64 0.66 4 1 C3.64184704 3.596609 3.26228751 4.75714119 1.3125 6.5625 C0.1678125 7.2740625 0.1678125 7.2740625 -1 8 C-2.2375 8.8353125 -2.2375 8.8353125 -3.5 9.6875 C-8.6350764 11.61315365 -13.5756036 11.23698819 -19 11 C-19 10.67 -19 10.34 -19 10 C-43.75 9.505 -43.75 9.505 -69 9 C-69 8.67 -69 8.34 -69 8 C-68.23436234 7.99635437 -67.46872467 7.99270874 -66.67988586 7.98895264 C-59.45553286 7.95104622 -52.23169404 7.89416439 -45.00767231 7.81609726 C-41.29391556 7.77662998 -37.58039564 7.7444382 -33.86645508 7.72900391 C-30.28054651 7.7138318 -26.69528904 7.67937805 -23.10967064 7.63169098 C-21.74343725 7.61688259 -20.37711089 7.60895929 -19.0107975 7.60811615 C-17.09343204 7.60574351 -15.17615811 7.57636246 -13.2590332 7.54589844 C-12.16871292 7.53701599 -11.07839264 7.52813354 -9.95503235 7.51898193 C-6.34760963 6.88542298 -4.7123363 5.38701158 -2 3 C-1.34 3 -0.68 3 0 3 C0 2.01 0 1.02 0 0 Z " fill="#5E98C2" transform="translate(171,166)"/>
<path d="M0 0 C2.375 0.6875 2.375 0.6875 5 2 C5.26492752 2.82553375 5.52985504 3.6510675 5.80281067 4.50161743 C6.76089302 7.25431864 6.76089302 7.25431864 9.56376648 7.91122437 C11.15581657 8.09704575 11.15581657 8.09704575 12.7800293 8.28662109 C13.95407318 8.42428894 15.12811707 8.56195679 16.33773804 8.70379639 C22.06912438 9.1673507 27.77078789 9.35670982 33.51953125 9.4140625 C35.35640755 9.44311172 35.35640755 9.44311172 37.23039246 9.4727478 C41.09102706 9.53189653 44.95169254 9.57866741 48.8125 9.625 C51.45118393 9.66323945 54.08985618 9.70229451 56.72851562 9.7421875 C63.15223899 9.83754381 69.57603442 9.92277489 76 10 C76 10.33 76 10.66 76 11 C67.66334743 11.1394431 59.32718758 11.24584257 50.98965454 11.31087303 C47.1175192 11.34209572 43.24618566 11.38439804 39.37451172 11.45263672 C35.63321129 11.51815971 31.89267861 11.55377411 28.15084839 11.56926346 C26.72830122 11.58029148 25.30579285 11.60182721 23.88357544 11.63438034 C16.15628587 11.80410541 10.38296433 11.86641076 4.41796875 6.57266235 C2.58371111 4.53829598 1.16647098 2.47875083 0 0 Z " fill="#2A70A1" transform="translate(87,143)"/>
<path d="M0 0 C2.31 0 4.62 0 7 0 C7 0.66 7 1.32 7 2 C5.57885742 3.20507812 5.57885742 3.20507812 3.60546875 4.53125 C2.89712891 5.01207031 2.18878906 5.49289063 1.45898438 5.98828125 C0.70939453 6.48714844 -0.04019531 6.98601562 -0.8125 7.5 C-1.91948242 8.24830078 -1.91948242 8.24830078 -3.04882812 9.01171875 C-5.02810798 10.34795655 -7.01239847 11.6761839 -9 13 C-9.99 13.66 -10.98 14.32 -12 15 C-14.26171875 15.4140625 -14.26171875 15.4140625 -16.6875 15.625 C-17.49574219 15.69976562 -18.30398437 15.77453125 -19.13671875 15.8515625 C-20.05904297 15.92503906 -20.05904297 15.92503906 -21 16 C-18.30572729 13.12878998 -15.60723903 11.6117451 -12 10 C-11.34 10 -10.68 10 -10 10 C-10 9.34 -10 8.68 -10 8 C-9.01 8 -8.02 8 -7 8 C-6.67 7.01 -6.34 6.02 -6 5 C-5.01 5.33 -4.02 5.66 -3 6 C-3 5.34 -3 4.68 -3 4 C-2.34 4 -1.68 4 -1 4 C-0.67 2.68 -0.34 1.36 0 0 Z " fill="#3D5F9C" transform="translate(210,235)"/>
<path d="M0 0 C1 3 1 3 0.36328125 4.8671875 C-3.61852875 12.47555308 -7.42528165 17.71008741 -15.828125 20.63671875 C-18.72133412 21.12065481 -21.33474487 20.847688 -24.25 20.5625 C-25.32765625 20.46066406 -26.4053125 20.35882813 -27.515625 20.25390625 C-28.33546875 20.17011719 -29.1553125 20.08632812 -30 20 C-30 19.67 -30 19.34 -30 19 C-29.2575 18.87625 -28.515 18.7525 -27.75 18.625 C-25.04234968 18.15325998 -25.04234968 18.15325998 -23.0625 16.875 C-21 16 -21 16 -17.9375 16.5625 C-16.968125 16.706875 -15.99875 16.85125 -15 17 C-13.22809091 15.64555699 -13.22809091 15.64555699 -12 14 C-11.34 14 -10.68 14 -10 14 C-9.67 13.01 -9.34 12.02 -9 11 C-7.68 11 -6.36 11 -5 11 C-4.731875 10.113125 -4.46375 9.22625 -4.1875 8.3125 C-3.08289181 5.23122452 -1.77150856 2.73778595 0 0 Z " fill="#3570A5" transform="translate(190,177)"/>
<path d="M0 0 C1.03084717 0.48662109 2.06169434 0.97324219 3.1237793 1.47460938 C9.27178036 3.7655411 15.53841627 3.42150477 22.01953125 3.40625 C23.36855825 3.41549663 24.71757439 3.42647187 26.0665741 3.43908691 C31.03868419 3.481842 36.0107704 3.49314576 40.98303223 3.50531006 C45.20346903 3.51683481 49.42350489 3.54035224 53.64377403 3.58000183 C55.61743523 3.59356381 57.59119322 3.58920394 59.56489563 3.58459473 C61.35772224 3.59976135 61.35772224 3.59976135 63.18676758 3.61523438 C64.23963455 3.61728882 65.29250153 3.61934326 66.37727356 3.62145996 C69.32488966 4.04689156 70.21260919 4.67910087 72 7 C71.29579422 6.83603226 70.59158844 6.67206451 69.86604309 6.50312805 C66.87967512 5.97887721 64.17341302 5.90721596 61.14331055 5.94995117 C59.41077278 5.96943062 59.41077278 5.96943062 57.64323425 5.98930359 C56.40358414 6.00701309 55.16393402 6.0247226 53.88671875 6.04296875 C51.92532918 6.05962793 49.96393906 6.07626251 48.00253773 6.09147358 C43.18027479 6.12947063 38.35827585 6.17593679 33.53637695 6.24682617 C30.82751847 6.28611861 28.11895913 6.31455467 25.40986633 6.33113098 C22.86429278 6.34702406 20.31875556 6.37846794 17.77360535 6.42753601 C10.6785134 6.44904289 6.04878991 5.791199 0 2 C0 1.34 0 0.68 0 0 Z " fill="#E2FBFE" transform="translate(94,151)"/>
<path d="M0 0 C0.99 0 1.98 0 3 0 C2.67 5.94 2.34 11.88 2 18 C2.66 18.33 3.32 18.66 4 19 C4.37890625 21.109375 4.37890625 21.109375 4.5625 23.75 C4.84236564 27.23832531 5.20289686 30.5838437 6 34 C0.83102489 29.43826839 -0.79184962 22.79596595 -1.2890625 16.1171875 C-1.32135173 10.61725584 -1.25644901 5.37310714 0 0 Z " fill="#3F85B4" transform="translate(81,109)"/>
<path d="M0 0 C2.475 0.495 2.475 0.495 5 1 C5.33 1.99 5.66 2.98 6 4 C6.66 4 7.32 4 8 4 C11.82894916 12.59804209 12.41058157 20.63516281 12.4375 29.9375 C12.45200195 31.57223267 12.45200195 31.57223267 12.46679688 33.23999023 C12.40667444 38.9662102 12.17344893 43.15985906 9 48 C8.34 48 7.68 48 7 48 C7.32484375 47.26523438 7.32484375 47.26523438 7.65625 46.515625 C9.9647085 40.31698643 10.33174699 34.41821956 10.375 27.875 C10.38853516 27.0284082 10.40207031 26.18181641 10.41601562 25.30957031 C10.36296944 17.75048949 8.70191929 11.56768957 3.875 5.625 C1.04635762 2.09271523 1.04635762 2.09271523 0 0 Z " fill="#D6F3FA" transform="translate(182,136)"/>
<path d="M0 0 C2.3125 1.8125 2.3125 1.8125 3.125 4 C3.186875 4.598125 3.24875 5.19625 3.3125 5.8125 C3.9725 5.8125 4.6325 5.8125 5.3125 5.8125 C5.3125 6.4725 5.3125 7.1325 5.3125 7.8125 C6.22 7.709375 7.1275 7.60625 8.0625 7.5 C11.3125 7.8125 11.3125 7.8125 13.6875 10.3125 C14.22375 11.1375 14.76 11.9625 15.3125 12.8125 C11.16315779 13.55016084 9.20866008 13.35398264 5.5390625 11.13671875 C2.74420004 9.08740271 0.01734881 6.97886436 -2.6875 4.8125 C-3.45707031 4.27238281 -4.22664063 3.73226562 -5.01953125 3.17578125 C-5.56996094 2.72589844 -6.12039062 2.27601563 -6.6875 1.8125 C-6.6875 1.1525 -6.6875 0.4925 -6.6875 -0.1875 C-3.82934747 -1.35193251 -2.88679203 -1.27555927 0 0 Z " fill="#385C9A" transform="translate(66.6875,177.1875)"/>
<path d="M0 0 C1.2065625 0.0309375 1.2065625 0.0309375 2.4375 0.0625 C1.7775 1.0525 1.1175 2.0425 0.4375 3.0625 C-2.40232849 3.4367218 -2.40232849 3.4367218 -6.07592773 3.43481445 C-6.74439728 3.43846512 -7.41286682 3.44211578 -8.10159302 3.44587708 C-10.31668313 3.45399904 -12.53104534 3.4403583 -14.74609375 3.42578125 C-16.28304545 3.42526277 -17.81999781 3.42577999 -19.35694885 3.42729187 C-22.5809212 3.42720207 -25.80464389 3.41675812 -29.02856445 3.39868164 C-33.16257704 3.37601309 -37.29622404 3.37544604 -41.43028164 3.38219929 C-44.60528312 3.38554025 -47.78020118 3.37890649 -50.95518684 3.36907005 C-52.47942735 3.36521851 -54.00367713 3.36406965 -55.52792168 3.3656559 C-57.65868692 3.36602655 -59.78898294 3.35340631 -61.91967773 3.3371582 C-63.13276108 3.33255081 -64.34584442 3.32794342 -65.59568787 3.32319641 C-68.5625 3.0625 -68.5625 3.0625 -71.5625 1.0625 C-70.71281143 1.06472061 -69.86312286 1.06694122 -68.98768616 1.06922913 C-60.99713275 1.08923014 -53.0065877 1.10447316 -45.01601505 1.11431217 C-40.90755715 1.11954046 -36.79911986 1.12663713 -32.69067383 1.13793945 C-28.72903172 1.14877025 -24.76740948 1.15477724 -20.80575371 1.15737724 C-19.29101689 1.15923114 -17.77628121 1.1628511 -16.26155281 1.16823006 C-14.14708187 1.17544307 -12.03269406 1.17649083 -9.91821289 1.17602539 C-8.10952477 1.17935631 -8.10952477 1.17935631 -6.26429749 1.18275452 C-3.15890043 1.04453616 -3.06057694 0.07464822 0 0 Z " fill="#E1F6FB" transform="translate(163.5625,170.9375)"/>
<path d="M0 0 C4.84677467 4.26410231 7.63538162 9.16919541 10.6875 14.8125 C11.17283203 15.67681641 11.65816406 16.54113281 12.15820312 17.43164062 C14.97565371 22.58077445 16.85586986 27.23920441 18 33 C14.4975224 31.2487612 13.76795681 27.05649802 12.31640625 23.56640625 C11.12572303 20.73196819 11.12572303 20.73196819 8 19 C6.97265625 17.37109375 6.97265625 17.37109375 6.0625 15.4375 C5.72863281 14.73238281 5.39476562 14.02726562 5.05078125 13.30078125 C4.70402344 12.54152344 4.35726562 11.78226563 4 11 C3.43345703 9.78376953 3.43345703 9.78376953 2.85546875 8.54296875 C0 2.29726148 0 2.29726148 0 0 Z " fill="#96D6EA" transform="translate(235,69)"/>
<path d="M0 0 C9.77134716 0.84968236 17.53733393 4.74636922 25 11 C22.30234372 12.34882814 20.84835666 11.80338265 18 11 C17.67 10.34 17.34 9.68 17 9 C12.60029786 6.80014893 7.78504178 5.9799432 3 5 C2.87625 4.360625 2.7525 3.72125 2.625 3.0625 C2.315625 2.0415625 2.315625 2.0415625 2 1 C1.34 0.67 0.68 0.34 0 0 Z " fill="#3BAFDA" transform="translate(186,33)"/>
<path d="M0 0 C0.33 0 0.66 0 1 0 C1.9238965 11.10386714 -0.02909961 19.16122307 -5 29 C-5.66 29.66 -6.32 30.32 -7 31 C-7 29.35 -7 27.7 -7 26 C-6.34 26 -5.68 26 -5 26 C-5 23.69 -5 21.38 -5 19 C-4.34 19 -3.68 19 -3 19 C-3.14308594 18.11248047 -3.14308594 18.11248047 -3.2890625 17.20703125 C-3.94935038 12.50056065 -4.28410981 9.32778701 -2 5 C-1.62875 4.071875 -1.2575 3.14375 -0.875 2.1875 C-0.441875 1.1046875 -0.441875 1.1046875 0 0 Z " fill="#559FC8" transform="translate(254,166)"/>
<path d="M0 0 C0.33 0 0.66 0 1 0 C1 1.65 1 3.3 1 5 C1.66 5 2.32 5 3 5 C3 5.66 3 6.32 3 7 C3.66 7 4.32 7 5 7 C6.60850387 12.14315734 7.52795025 17.08852151 8.125 22.4375 C8.21136719 23.16904297 8.29773437 23.90058594 8.38671875 24.65429688 C8.59628393 26.43560094 8.79887868 28.21772281 9 30 C6.02229284 27.02229284 5.24271281 23.44737613 3.9375 19.5 C3.66728027 18.68934082 3.39706055 17.87868164 3.11865234 17.04345703 C1.27596549 11.32323545 0.19459835 6.03254885 0 0 Z " fill="#6D83B1" transform="translate(16,163)"/>
<path d="M0 0 C0.66 0.33 1.32 0.66 2 1 C-5.43888316 12.50342756 -12.33862167 20.89555055 -26 25 C-26 24.01 -26 23.02 -26 22 C-23.03 21.34 -20.06 20.68 -17 20 C-17 19.34 -17 18.68 -17 18 C-16.01 18 -15.02 18 -14 18 C-14 17.34 -14 16.68 -14 16 C-13.21625 15.773125 -12.4325 15.54625 -11.625 15.3125 C-8.78125 14.21875 -8.78125 14.21875 -7.6875 11.375 C-7.3471875 10.199375 -7.3471875 10.199375 -7 9 C-6.34 9 -5.68 9 -5 9 C-4.67 7.68 -4.34 6.36 -4 5 C-3.34 5 -2.68 5 -2 5 C-1.855625 4.360625 -1.71125 3.72125 -1.5625 3.0625 C-1 1 -1 1 0 0 Z " fill="#D9EEF9" transform="translate(205,192)"/>
<path d="M0 0 C0.99 0 1.98 0 3 0 C3.33 0.33 3.66 0.66 4 1 C4.5775 0.7525 5.155 0.505 5.75 0.25 C6.86375 0.12625 6.86375 0.12625 8 0 C10.625 2.4375 10.625 2.4375 13 5 C13.66 5 14.32 5 15 5 C15 5.66 15 6.32 15 7 C15.66 7.33 16.32 7.66 17 8 C11.08720776 7.66112456 6.09723945 7.31320564 1 4 C0.34 3.01 -0.32 2.02 -1 1 C-0.67 0.67 -0.34 0.34 0 0 Z " fill="#455697" transform="translate(81,249)"/>
<path d="M0 0 C0.33 0 0.66 0 1 0 C1.33 8.58 1.66 17.16 2 26 C2.66 26.33 3.32 26.66 4 27 C4 27.66 4 28.32 4 29 C2.02 29.33 0.04 29.66 -2 30 C-2.89208437 25.36116128 -3.0987373 23.13054109 -1 19 C-0.74380535 16.89422762 -0.74380535 16.89422762 -0.83984375 14.70703125 C-0.8562793 13.5149707 -0.8562793 13.5149707 -0.87304688 12.29882812 C-0.89431641 11.47833984 -0.91558594 10.65785156 -0.9375 9.8125 C-0.99901988 6.87093848 -1.02066358 3.94308351 -1 1 C-0.67 0.67 -0.34 0.34 0 0 Z " fill="#294689" transform="translate(59,178)"/>
<path d="M0 0 C0.495 0.99 0.495 0.99 1 2 C-2.93858319 3.91302612 -4.80411386 3.86885849 -9 3 C-11.03438023 2.9430693 -13.07058976 2.93784931 -15.10546875 2.97265625 C-16.82733398 2.99102539 -16.82733398 2.99102539 -18.58398438 3.00976562 C-20.99810441 3.04509421 -23.41217204 3.08419306 -25.82617188 3.12695312 C-27.54223633 3.14338867 -27.54223633 3.14338867 -29.29296875 3.16015625 C-30.3399292 3.17699463 -31.38688965 3.19383301 -32.46557617 3.21118164 C-35 3 -35 3 -37 1 C-24.79 0.67 -12.58 0.34 0 0 Z " fill="#295194" transform="translate(182,218)"/>
<path d="M0 0 C0.66 0 1.32 0 2 0 C5.36514711 12.01440953 6.47491833 21.72574286 4 34 C3.67 34 3.34 34 3 34 C2.98018066 33.37544922 2.96036133 32.75089844 2.93994141 32.10742188 C2.84383068 29.23790619 2.73450513 26.36903453 2.625 23.5 C2.5940625 22.51773438 2.563125 21.53546875 2.53125 20.5234375 C2.29860409 14.70728985 1.5260772 9.60802352 0 4 C0 2.68 0 1.36 0 0 Z " fill="#519AC0" transform="translate(210,140)"/>
<path d="M0 0 C8.89660776 1.81605067 15.02415346 7.55387119 20.40625 14.53515625 C21.97573638 16.96247465 23.03153672 19.28346049 24 22 C22.125 21.3125 22.125 21.3125 20 20 C19.32558869 18.3364521 18.6599679 16.66933058 18 15 C16.35305515 13.31384218 14.68873879 11.64429829 13 10 C13 9.34 13 8.68 13 8 C12.278125 7.71125 11.55625 7.4225 10.8125 7.125 C8.20833333 6.08333333 5.60416667 5.04166667 3 4 C3 3.34 3 2.68 3 2 C2.01 1.67 1.02 1.34 0 1 C0 0.67 0 0.34 0 0 Z " fill="#D1F4FB" transform="translate(182,114)"/>
<path d="M0 0 C1.34203298 4.02609895 0.40545407 7.12390561 -1 11 C-1.680625 12.010625 -2.36125 13.02125 -3.0625 14.0625 C-5.29387654 17.44555476 -5.68010324 20.0012905 -6 24 C-6.99 24.33 -7.98 24.66 -9 25 C-8.43858604 19.64923982 -7.13138283 15.20142702 -5.0625 10.25 C-4.79759766 9.59128906 -4.53269531 8.93257812 -4.25976562 8.25390625 C-3.04163977 5.27357848 -1.7923654 2.68854809 0 0 Z " fill="#4C8FB9" transform="translate(28,85)"/>
<path d="M0 0 C6.25695595 7.71173104 6.43979975 16.75726907 6.25 26.3125 C6.24484375 27.37017578 6.2396875 28.42785156 6.234375 29.51757812 C6.18750152 34.16098257 6.02354212 38.45610884 5 43 C4.67 43 4.34 43 4 43 C4.00523682 42.25838623 4.01047363 41.51677246 4.01586914 40.75268555 C4.03663614 37.39763229 4.0496593 34.04259256 4.0625 30.6875 C4.07087891 29.52025391 4.07925781 28.35300781 4.08789062 27.15039062 C4.09111328 26.03212891 4.09433594 24.91386719 4.09765625 23.76171875 C4.10289307 22.73006592 4.10812988 21.69841309 4.11352539 20.63549805 C4.11635 17.89053726 4.11635 17.89053726 3 15 C2.87218214 12.32605036 2.95608129 9.67904143 3 7 C2.34 7 1.68 7 1 7 C0.67 4.69 0.34 2.38 0 0 Z " fill="#CAF0F9" transform="translate(207,138)"/>
<path d="M0 0 C0.66 0.33 1.32 0.66 2 1 C1.60167969 1.70125 1.20335938 2.4025 0.79296875 3.125 C-4.1959288 12.05888954 -7.24493274 19.92384916 -9 30 C-9.33 30 -9.66 30 -10 30 C-11.50412922 18.96971908 -7.479216 11.22004619 -2 2 C-1.34 1.34 -0.68 0.68 0 0 Z " fill="#448EB9" transform="translate(70,84)"/>
<path d="M0 0 C2.62756588 0.25437711 5.25071774 0.52764201 7.875 0.8125 C8.99455078 0.91788086 8.99455078 0.91788086 10.13671875 1.02539062 C12.10551777 1.24710223 14.05636658 1.61579339 16 2 C18 5 18 5 18 8 C13.66695924 7.35534798 10.13327935 5.81074878 6.1875 3.9375 C5.02605469 3.38964844 3.86460937 2.84179688 2.66796875 2.27734375 C1.78753906 1.85582031 0.90710938 1.43429688 0 1 C0 0.67 0 0.34 0 0 Z " fill="#4FB5DA" transform="translate(196,73)"/>
<path d="M0 0 C1.12775345 0.00212242 1.12775345 0.00212242 2.27828979 0.00428772 C4.6829626 0.0098916 7.08754277 0.02244468 9.4921875 0.03515625 C11.12109241 0.04017075 12.74999877 0.04473375 14.37890625 0.04882812 C18.37503577 0.05986228 22.37109592 0.07712946 26.3671875 0.09765625 C26.3671875 0.42765625 26.3671875 0.75765625 26.3671875 1.09765625 C25.55564209 1.11747559 24.74409668 1.13729492 23.90795898 1.15771484 C20.20656001 1.25337462 16.50569385 1.36288839 12.8046875 1.47265625 C11.52787109 1.50359375 10.25105469 1.53453125 8.93554688 1.56640625 C2.72645088 1.75993651 -2.7590499 2.05173894 -8.6328125 4.09765625 C-11.5703125 4.22265625 -11.5703125 4.22265625 -13.6328125 4.09765625 C-8.86303937 0.44083018 -5.94834508 -0.04186214 0 0 Z " fill="#DFFEFE" transform="translate(101.6328125,67.90234375)"/>
<path d="M0 0 C4.875 1.875 4.875 1.875 6 3 C8.37338639 3.15971977 10.72118272 3.2592433 13.09765625 3.31640625 C13.80651474 3.33718735 14.51537323 3.35796844 15.24571228 3.37937927 C17.51787305 3.44494598 19.79015264 3.5037923 22.0625 3.5625 C23.59962183 3.60567849 25.1367315 3.64929255 26.67382812 3.69335938 C30.4490959 3.80063449 34.2244836 3.90188137 38 4 C38 4.33 38 4.66 38 5 C33.25051037 5.26722789 28.50101355 5.50016276 23.74829102 5.7019043 C22.13293113 5.77524879 20.51796269 5.85783541 18.90356445 5.94995117 C16.57805806 6.08101605 14.25315347 6.17840652 11.92578125 6.26953125 C11.20787918 6.31721146 10.48997711 6.36489166 9.75032043 6.41401672 C5.65798411 6.53671806 4.19251068 6.16175667 1.00463867 3.4831543 C0.34310791 2.66371338 -0.31842285 1.84427246 -1 1 C-0.67 0.67 -0.34 0.34 0 0 Z " fill="#2B7BAF" transform="translate(105,128)"/>
<path d="M0 0 C0.66 0 1.32 0 2 0 C2 0.66 2 1.32 2 2 C2.99 2 3.98 2 5 2 C5.92188461 4.76565382 6.11785222 6.38283702 6.09765625 9.23046875 C6.09443359 10.03291016 6.09121094 10.83535156 6.08789062 11.66210938 C6.07532227 12.91217773 6.07532227 12.91217773 6.0625 14.1875 C6.05798828 15.03248047 6.05347656 15.87746094 6.04882812 16.74804688 C6.03705403 18.83206155 6.0191189 20.91603977 6 23 C5.67 23 5.34 23 5 23 C4.34 18.05 3.68 13.1 3 8 C2.34 8 1.68 8 1 8 C0.26919734 6.02253397 -0.39421747 4.01927511 -1 2 C-0.67 1.34 -0.34 0.68 0 0 Z " fill="#40A5CF" transform="translate(251,112)"/>
<path d="M0 0 C0 6.36398936 -5.85192731 12.43712005 -10 17 C-10.99 17.33 -11.98 17.66 -13 18 C-10.35234215 10.49830275 -5.66081109 5.3745903 0 0 Z " fill="#D0EEF8" transform="translate(79,77)"/>
<path d="M0 0 C-0.33 0.66 -0.66 1.32 -1 2 C-4.47782583 3.15927528 -7.18803257 3.11313066 -10.85546875 3.09765625 C-11.84792351 3.09553383 -11.84792351 3.09553383 -12.86042786 3.09336853 C-14.96949828 3.08777996 -17.07846177 3.07522965 -19.1875 3.0625 C-20.61913909 3.05748352 -22.05077985 3.05292087 -23.48242188 3.04882812 C-26.98831588 3.0378143 -30.4941475 3.02055755 -34 3 C-34 2.67 -34 2.34 -34 2 C-33.29391602 1.98018066 -32.58783203 1.96036133 -31.86035156 1.93994141 C-28.65653006 1.84459585 -25.45335199 1.73495487 -22.25 1.625 C-21.13882813 1.5940625 -20.02765625 1.563125 -18.8828125 1.53125 C-17.81289062 1.49257813 -16.74296875 1.45390625 -15.640625 1.4140625 C-14.16384277 1.36693115 -14.16384277 1.36693115 -12.65722656 1.31884766 C-0.57571676 -0.13084472 -0.57571676 -0.13084472 0 0 Z " fill="#2D3E82" transform="translate(159,261)"/>
<path d="M0 0 C0.33 0 0.66 0 1 0 C1.55353075 15.92938497 1.55353075 15.92938497 -2 22 C-2.33 22 -2.66 22 -3 22 C-3.45755719 14.37404682 -1.74536299 7.3970146 0 0 Z " fill="#6B95BE" transform="translate(18,110)"/>
<path d="M0 0 C0.33 0.66 0.66 1.32 1 2 C0.02131869 4.43931143 -1.01300766 6.72052024 -2.1875 9.0625 C-2.49236328 9.71283203 -2.79722656 10.36316406 -3.11132812 11.03320312 C-5.46610341 15.77731015 -5.46610341 15.77731015 -8.23828125 16.93359375 C-8.81964844 16.95550781 -9.40101562 16.97742188 -10 17 C-8.68018255 12.31812124 -6.80204328 8.99625079 -3.875 5.125 C-3.15054688 4.15820312 -2.42609375 3.19140625 -1.6796875 2.1953125 C-1.12539063 1.47085938 -0.57109375 0.74640625 0 0 Z " fill="#599EC4" transform="translate(39,68)"/>
<path d="M0 0 C2.89932357 2.39509338 3.50168276 4.31245243 4 8 C4.7425 8.12375 5.485 8.2475 6.25 8.375 C8.80141485 8.95486701 10.7267573 9.73708739 13 11 C13 11.66 13 12.32 13 13 C5.89006342 12.8794926 5.89006342 12.8794926 3.35546875 10.375 C2.14471077 8.64434882 1.06217605 6.82561508 0 5 C0.33 4.34 0.66 3.68 1 3 C-0.32 2.67 -1.64 2.34 -3 2 C-2.01 1.34 -1.02 0.68 0 0 Z " fill="#425194" transform="translate(61,232)"/>
<path d="M0 0 C2.97 0 5.94 0 9 0 C9 0.66 9 1.32 9 2 C10.093125 2.12375 11.18625 2.2475 12.3125 2.375 C16 3 16 3 19 5 C19 5.99 19 6.98 19 8 C14.65328707 6.58632741 10.3864361 5.02739359 6.125 3.375 C4.97257813 2.92898437 3.82015625 2.48296875 2.6328125 2.0234375 C1.76398438 1.68570313 0.89515625 1.34796875 0 1 C0 0.67 0 0.34 0 0 Z " fill="#CEF4FA" transform="translate(181,89)"/>
<path d="M0 0 C0.33 0 0.66 0 1 0 C1.08770383 3.85402129 1.14062735 7.70778291 1.1875 11.5625 C1.22520508 13.19155273 1.22520508 13.19155273 1.26367188 14.85351562 C1.32016075 21.04846255 0.98984306 25.53039208 -2 31 C-3.28298192 27.30465066 -2.75732706 24.37811738 -2.125 20.5625 C-1.06210028 13.71828763 -0.43616647 6.90979519 0 0 Z " fill="#2F97C5" transform="translate(257,135)"/>
<path d="M0 0 C2.375 0.6875 2.375 0.6875 5 2 C5.2475 2.825 5.495 3.65 5.75 4.5 C6.1625 5.325 6.575 6.15 7 7 C10.08765687 8.04417909 10.08765687 8.04417909 13.625 8.3125 C14.81351563 8.45300781 16.00203125 8.59351563 17.2265625 8.73828125 C18.59941406 8.86783203 18.59941406 8.86783203 20 9 C20 9.33 20 9.66 20 10 C15.99559286 11.01964071 12.55674661 11.74895026 8.7265625 9.90625 C4.89807921 7.11672314 2.04824837 4.35252779 0 0 Z " fill="#3C76A8" transform="translate(87,143)"/>
<path d="M0 0 C2.66673742 -0.02727345 5.33318869 -0.04696948 8 -0.0625 C8.74378906 -0.07087891 9.48757812 -0.07925781 10.25390625 -0.08789062 C15.26148844 -0.10966272 20.04279032 0.28458451 25 1 C23.68 2.32 22.36 3.64 21 5 C20.34 4.34 19.68 3.68 19 3 C16.34444759 2.57093028 16.34444759 2.57093028 13.3125 2.4375 C8.82422906 2.13504131 4.44073061 1.70647987 0 1 C0 0.67 0 0.34 0 0 Z " fill="#2CA3D7" transform="translate(154,89)"/>
<path d="M0 0 C1.63001953 0.01353516 1.63001953 0.01353516 3.29296875 0.02734375 C4.12441406 0.03894531 4.95585938 0.05054687 5.8125 0.0625 C3.28769307 2.58730693 1.67426966 2.61988633 -1.8125 3.1875 C-2.81539062 3.35507812 -3.81828125 3.52265625 -4.8515625 3.6953125 C-5.62242188 3.81648438 -6.39328125 3.93765625 -7.1875 4.0625 C-7.1875 4.7225 -7.1875 5.3825 -7.1875 6.0625 C-8.8375 5.7325 -10.4875 5.4025 -12.1875 5.0625 C-11.8575 4.4025 -11.5275 3.7425 -11.1875 3.0625 C-10.5275 3.0625 -9.8675 3.0625 -9.1875 3.0625 C-9.1875 2.4025 -9.1875 1.7425 -9.1875 1.0625 C-5.90230525 -0.03256492 -3.45086585 -0.03710608 0 0 Z " fill="#36B1DE" transform="translate(113.1875,23.9375)"/>
<path d="M0 0 C0.639375 0.144375 1.27875 0.28875 1.9375 0.4375 C5.93844788 1.17236798 9.95504896 1.58581111 14 2 C14 2.66 14 3.32 14 4 C15.98 4.66 17.96 5.32 20 6 C15.99121088 7.57128418 12.89645422 6.4085818 8.875 5.25 C7.63492188 4.90453125 6.39484375 4.5590625 5.1171875 4.203125 C2 3 2 3 0 0 Z " fill="#48689F" transform="translate(82,191)"/>
<path d="M0 0 C0.33 0 0.66 0 1 0 C1.77546747 8.84032918 2.19354532 17.16776465 1 26 C-1.4680385 22.23453414 -1.26312594 18.46354098 -1.1875 14.125 C-1.18685547 13.43019531 -1.18621094 12.73539063 -1.18554688 12.01953125 C-1.15077526 7.91648064 -0.78859955 4.02501211 0 0 Z " fill="#BEE0EE" transform="translate(61,108)"/>
<path d="M0 0 C3.96001643 1.28432965 5.94071373 2.34944707 8 6 C9.11230798 8.96786322 10.08583281 11.96574293 11 15 C10.34 15 9.68 15 9 15 C7.7109375 13.35546875 7.7109375 13.35546875 6.375 11.1875 C5.92898437 10.47980469 5.48296875 9.77210937 5.0234375 9.04296875 C4 7 4 7 4 4 C3.01 4 2.02 4 1 4 C0.67 2.68 0.34 1.36 0 0 Z " fill="#33AFDE" transform="translate(228,65)"/>
<path d="M0 0 C2.31 0 4.62 0 7 0 C7 0.66 7 1.32 7 2 C4.8125 3.7265625 4.8125 3.7265625 2 5.625 C1.071875 6.25664062 0.14375 6.88828125 -0.8125 7.5390625 C-1.534375 8.02117187 -2.25625 8.50328125 -3 9 C-3.33 8.01 -3.66 7.02 -4 6 C-3.67 5.34 -3.34 4.68 -3 4 C-2.34 4 -1.68 4 -1 4 C-0.67 2.68 -0.34 1.36 0 0 Z " fill="#5473A7" transform="translate(210,235)"/>
<path d="M0 0 C0 3 0 3 -1.5390625 4.578125 C-2.22742188 5.12984375 -2.91578125 5.6815625 -3.625 6.25 C-6.46143716 8.60619383 -8.88512466 10.93302797 -11.1875 13.8125 C-13.49672978 16.63418899 -15.38650088 18.04348553 -19 19 C-17.48363279 15.29704803 -15.30546659 13.23754358 -12.3125 10.625 C-11.42433594 9.84511719 -10.53617188 9.06523438 -9.62109375 8.26171875 C-8.75613281 7.51535156 -7.89117187 6.76898438 -7 6 C-6.26910156 5.36707031 -5.53820312 4.73414063 -4.78515625 4.08203125 C-3.19630207 2.71412202 -1.59917837 1.35582514 0 0 Z " fill="#4FA2C8" transform="translate(59,49)"/>
<path d="M0 0 C1.98 0.66 3.96 1.32 6 2 C6 2.66 6 3.32 6 4 C6.99 4.33 7.98 4.66 9 5 C9.625 6.9375 9.625 6.9375 10 9 C10.33 9.66 10.66 10.32 11 11 C8.08728356 9.65319085 5.70671723 8.12551255 3.25 6.0625 C2.63640625 5.55847656 2.0228125 5.05445313 1.390625 4.53515625 C0 3 0 3 0 0 Z " fill="#5B6BA0" transform="translate(53,230)"/>
<path d="M0 0 C3 1 3 1 5 3 C4.21625 3.433125 3.4325 3.86625 2.625 4.3125 C-0.21698375 5.89220247 -0.21698375 5.89220247 -2 9 C-2.07905064 11.33199388 -2.08798769 13.66832622 -2 16 C-2.66 16 -3.32 16 -4 16 C-4.63019694 6.00437637 -4.63019694 6.00437637 -2 1.8125 C-1.34 1.214375 -0.68 0.61625 0 0 Z " fill="#3B8BBB" transform="translate(107,109)"/>
<path d="M0 0 C0 3.15987325 -0.38214873 4.36034793 -2 7 C-2.99 7.66 -3.98 8.32 -5 9 C-6.20482939 10.7179646 -6.20482939 10.7179646 -7.1875 12.625 C-8.0846875 14.295625 -8.0846875 14.295625 -9 16 C-10 13 -10 13 -8.92578125 10.37109375 C-8.12720703 8.91896484 -8.12720703 8.91896484 -7.3125 7.4375 C-6.53326172 5.98150391 -6.53326172 5.98150391 -5.73828125 4.49609375 C-3.96253537 1.94620247 -2.87057001 1.05692011 0 0 Z " fill="#2B8FC5" transform="translate(45,65)"/>
<path d="M0 0 C0.33 0 0.66 0 1 0 C1.01417969 0.85980469 1.02835937 1.71960938 1.04296875 2.60546875 C1.41444888 11.81215205 3.20510803 18.57001858 7 27 C5.046875 26.2265625 5.046875 26.2265625 3 25 C2.25 21.375 2.25 21.375 2 18 C1.34 18 0.68 18 0 18 C0 12.06 0 6.12 0 0 Z " fill="#D0EDF7" transform="translate(79,115)"/>
<path d="M0 0 C0.66 0.66 1.32 1.32 2 2 C1.01 2.33 0.02 2.66 -1 3 C-0.01 4.98 0.98 6.96 2 9 C1.01 8.67 0.02 8.34 -1 8 C-2.8802101 8.7460698 -2.8802101 8.7460698 -4.6875 9.9375 C-5.780625 10.618125 -6.87375 11.29875 -8 12 C-7.690625 11.236875 -7.38125 10.47375 -7.0625 9.6875 C-6.32106407 7.81210323 -5.63771783 5.91315348 -5 4 C-4.01 4 -3.02 4 -2 4 C-2 3.34 -2 2.68 -2 2 C-1.34 2 -0.68 2 0 2 C0 1.34 0 0.68 0 0 Z " fill="#2268AE" transform="translate(206,198)"/>
<path d="M0 0 C1.29887873 4.19141717 0.42963299 6.8615887 -1 11 C-1.99 12.485 -1.99 12.485 -3 14 C-3.33 14.66 -3.66 15.32 -4 16 C-4.66 16 -5.32 16 -6 16 C-6 16.66 -6 17.32 -6 18 C-6.99 17.67 -7.98 17.34 -9 17 C-8.60167969 16.443125 -8.20335937 15.88625 -7.79296875 15.3125 C-4.33732444 10.33502693 -1.8847473 5.75895008 0 0 Z " fill="#3F7FAF" transform="translate(210,184)"/>
<path d="M0 0 C0.99 0 1.98 0 3 0 C3 0.99 3 1.98 3 3 C3.99 3.33 4.98 3.66 6 4 C7.54613006 8.09724467 8.29227216 10.81857651 7 15 C5.82823482 12.87767021 4.66245215 10.75242209 3.5 8.625 C3.16613281 8.02171875 2.83226562 7.4184375 2.48828125 6.796875 C0 2.2265625 0 2.2265625 0 0 Z " fill="#449CC5" transform="translate(202,127)"/>
<path d="M0 0 C0.66 0.33 1.32 0.66 2 1 C0.35 1.66 -1.3 2.32 -3 3 C-3 3.99 -3 4.98 -3 6 C-9.96428571 8.27678571 -9.96428571 8.27678571 -14 7 C-11.71296692 5.80274117 -9.42115138 4.61702982 -7.125 3.4375 C-6.14853516 2.92413086 -6.14853516 2.92413086 -5.15234375 2.40039062 C-3.46470143 1.53917109 -1.73420407 0.76313297 0 0 Z " fill="#7FCBE0" transform="translate(89,29)"/>
<path d="M0 0 C-1 2 -1 2 -4.0625 3.125 C-8.09858291 4.19682285 -11.84184728 4.1459001 -16 4 C-11.95384951 -0.04615049 -5.4704121 -1.94111397 0 0 Z " fill="#3A649B" transform="translate(190,215)"/>
<path d="M0 0 C0.33 0 0.66 0 1 0 C1.433422 8.15475474 0.29370226 15.17683695 -2 23 C-2.66 23 -3.32 23 -4 23 C-3.87882813 22.42894531 -3.75765625 21.85789063 -3.6328125 21.26953125 C-2.17461372 14.21409256 -1.05000462 7.12662714 0 0 Z " fill="#3482B3" transform="translate(215,161)"/>
<path d="M0 0 C5.67853635 1.41963409 9.53174216 4.39363961 14 8 C11.30234372 9.34882814 9.84835666 8.80338265 7 8 C6.67 7.34 6.34 6.68 6 6 C5.0409375 5.566875 5.0409375 5.566875 4.0625 5.125 C1.57998766 3.77090236 1.03128603 2.57821507 0 0 Z " fill="#88CEE4" transform="translate(197,36)"/>
<path d="M0 0 C2.27141109 0.11402064 4.54214552 0.24158505 6.8125 0.375 C8.07707031 0.44460938 9.34164062 0.51421875 10.64453125 0.5859375 C14 1 14 1 17 3 C16.34 3.66 15.68 4.32 15 5 C9.77368864 4.61758697 4.90756 2.73400453 0 1 C0 0.67 0 0.34 0 0 Z " fill="#6573A0" transform="translate(90,256)"/>
<path d="M0 0 C-0.55550695 3.59905908 -1.74887248 4.99909799 -4.5625 7.25 C-5.20316406 7.77078125 -5.84382812 8.2915625 -6.50390625 8.828125 C-6.99761719 9.21484375 -7.49132812 9.6015625 -8 10 C-7.8125 6.6875 -7.8125 6.6875 -7 3 C-4.58235424 1.07828158 -3.11532786 0 0 0 Z " fill="#5C85B3" transform="translate(231,220)"/>
<path d="M0 0 C0.33 0 0.66 0 1 0 C1.08132642 3.04221065 1.14065374 6.0822238 1.1875 9.125 C1.22520508 10.40890625 1.22520508 10.40890625 1.26367188 11.71875 C1.32398809 16.94615526 0.85261993 20.43281324 -2 25 C-2.66 25 -3.32 25 -4 25 C-3.79503906 24.45214844 -3.59007812 23.90429688 -3.37890625 23.33984375 C-0.73860286 15.57052996 -0.31499141 8.1463295 0 0 Z " fill="#ACD4E8" transform="translate(193,159)"/>
<path d="M0 0 C0.33 0 0.66 0 1 0 C1 7.92 1 15.84 1 24 C-3 22 -3 22 -4 20 C-3.01 19.67 -2.02 19.34 -1 19 C-0.67 12.73 -0.34 6.46 0 0 Z " fill="#D3FCFE" transform="translate(212,82)"/>
<path d="M0 0 C2.72567702 1.5433296 3.714572 2.0625 6.9375 2.0625 C6.9375 2.7225 6.9375 3.3825 6.9375 4.0625 C7.9275 4.3925 8.9175 4.7225 9.9375 5.0625 C6.9675 4.7325 3.9975 4.4025 0.9375 4.0625 C0.9375 3.4025 0.9375 2.7425 0.9375 2.0625 C-0.361875 1.93875 -1.66125 1.815 -3 1.6875 C-5.21484375 1.4765625 -5.21484375 1.4765625 -7.0625 1.0625 C-7.3925 0.4025 -7.7225 -0.2575 -8.0625 -0.9375 C-4.62127993 -2.16155815 -3.13427649 -1.79360331 0 0 Z " fill="#37AFDC" transform="translate(194.0625,68.9375)"/>
<path d="M0 0 C2.64 0 5.28 0 8 0 C4.9182501 2.05449993 2.6904243 2.74475809 -0.875 3.625 C-1.90367187 3.88539063 -2.93234375 4.14578125 -3.9921875 4.4140625 C-6.75879061 4.95301116 -9.19284196 5.11394368 -12 5 C-10.09598862 3.09598862 -8.66574314 2.06479561 -5.953125 1.80078125 C-3.96766727 1.8113422 -1.9830086 1.90084957 0 2 C0 1.34 0 0.68 0 0 Z " fill="#707EAA" transform="translate(167,259)"/>
<path d="M0 0 C2.65269897 2.47585238 4.68010103 4.59026101 6 8 C6 8.99 6 9.98 6 11 C4.125 10.75 4.125 10.75 2 10 C-0.35535899 6.82026536 -0.17494335 3.84875379 0 0 Z " fill="#485C95" transform="translate(27,193)"/>
<path d="M0 0 C4.94515667 2.62711448 8.87775489 6.26645294 13 10 C12.01 10 11.02 10 10 10 C9.566875 9.525625 9.13375 9.05125 8.6875 8.5625 C6.3293094 6.37899018 4.12597439 6.34733049 1 6 C0.67 4.02 0.34 2.04 0 0 Z " fill="#88D1E6" transform="translate(211,45)"/>
<path d="M0 0 C0.84046875 0.01804687 1.6809375 0.03609375 2.546875 0.0546875 C4.61507395 0.10169202 6.68268441 0.17343276 8.75 0.25 C8.75 0.58 8.75 0.91 8.75 1.25 C7.71359375 1.28738281 6.6771875 1.32476562 5.609375 1.36328125 C4.23954816 1.42895788 2.86975809 1.49540464 1.5 1.5625 C0.81808594 1.58505859 0.13617188 1.60761719 -0.56640625 1.63085938 C-4.82866091 1.8584555 -6.98820563 2.57921883 -10.25 5.25 C-11.24 4.92 -12.23 4.59 -13.25 4.25 C-9.61313898 -0.82561922 -5.70594104 -0.23180385 0 0 Z " fill="#DEF7FC" transform="translate(118.25,111.75)"/>
<path d="M0 0 C0 0.66 0 1.32 0 2 C-2.64 2 -5.28 2 -8 2 C-8 2.66 -8 3.32 -8 4 C-10.64 4 -13.28 4 -16 4 C-15.67 3.01 -15.34 2.02 -15 1 C-14.01 1.33 -13.02 1.66 -12 2 C-11.2575 1.690625 -10.515 1.38125 -9.75 1.0625 C-6.37981859 -0.23961555 -3.58214661 -0.14047634 0 0 Z " fill="#273F8B" transform="translate(175,257)"/>
<path d="M0 0 C0 0.99 0 1.98 0 3 C-4.36240551 7.05080512 -8.49080825 7.12509991 -14.25 7.0625 C-15.32765625 7.05347656 -16.4053125 7.04445312 -17.515625 7.03515625 C-18.33546875 7.02355469 -19.1553125 7.01195312 -20 7 C-20 6.67 -20 6.34 -20 6 C-19.29875 5.97421875 -18.5975 5.9484375 -17.875 5.921875 C-11.42226306 5.53611355 -4.84348827 4.84348827 0 0 Z " fill="#DDF1FA" transform="translate(181,193)"/>
<path d="M0 0 C1.32 0.33 2.64 0.66 4 1 C4 1.66 4 2.32 4 3 C6.31 3.33 8.62 3.66 11 4 C11.33 5.32 11.66 6.64 12 8 C10.68 7.67 9.36 7.34 8 7 C8 6.34 8 5.68 8 5 C5.69 5 3.38 5 1 5 C1 4.01 1 3.02 1 2 C0.67 1.34 0.34 0.68 0 0 Z " fill="#36B0DE" transform="translate(200,41)"/>
<path d="M0 0 C0.66 0.33 1.32 0.66 2 1 C-0.36975637 4.72390287 -2.64962537 8.09634199 -6 11 C-6.66 11 -7.32 11 -8 11 C-6.52670958 5.99081256 -3.72484762 3.48192278 0 0 Z " fill="#4896BC" transform="translate(93,91)"/>
<path d="M0 0 C3.57410797 2.68058098 6.31941902 5.42589203 9 9 C8.67 9.66 8.34 10.32 8 11 C5.1353789 9.55490096 2.45240837 8.08132026 0 6 C-0.5 2.6875 -0.5 2.6875 0 0 Z " fill="#91D4E8" transform="translate(226,58)"/>
<path d="M0 0 C0.66 0.33 1.32 0.66 2 1 C-1.27530896 5.63720719 -4.30435607 9.68542782 -9 13 C-8.51286902 8.58489226 -7.14946803 6.69553355 -3.9375 3.6875 C-3.20402344 2.99011719 -2.47054687 2.29273438 -1.71484375 1.57421875 C-1.14894531 1.05472656 -0.58304688 0.53523438 0 0 Z " fill="#2699D0" transform="translate(55,54)"/>
<path d="M0 0 C0.99 0.66 1.98 1.32 3 2 C5.62531524 2.16713569 5.62531524 2.16713569 8 2 C8.33 2.66 8.66 3.32 9 4 C2.56688704 4.09507063 -3.65758005 4.15316726 -10 3 C-10 2.67 -10 2.34 -10 2 C-6.7 2 -3.4 2 0 2 C0 1.34 0 0.68 0 0 Z " fill="#235097" transform="translate(104,193)"/>
<path d="M0 0 C9.85828397 0.21056529 9.85828397 0.21056529 13.125 3.5625 C13.74375 4.366875 14.3625 5.17125 15 6 C12 6 12 6 9.75 4.625 C6.59173173 2.75875057 3.54147191 1.90272813 0 1 C0 0.67 0 0.34 0 0 Z " fill="#54A8CD" transform="translate(178,112)"/>
<path d="M0 0 C0.66 0 1.32 0 2 0 C1.566875 0.8353125 1.566875 0.8353125 1.125 1.6875 C-0.07361818 4.00238964 -0.07361818 4.00238964 -0.8125 6.625 C-2 9 -2 9 -4.625 10.3125 C-5.40875 10.539375 -6.1925 10.76625 -7 11 C-7.33 10.01 -7.66 9.02 -8 8 C-7.38125 7.9175 -6.7625 7.835 -6.125 7.75 C-3.84957521 7.20076457 -3.84957521 7.20076457 -2.875 5.125 C-2.58625 4.42375 -2.2975 3.7225 -2 3 C-1.34 2.01 -0.68 1.02 0 0 Z " fill="#2A91C9" transform="translate(75,75)"/>
<path d="M0 0 C0.33 0.66 0.66 1.32 1 2 C-2.87788853 3.88354586 -4.86123307 4.00945535 -9 3 C-10.9996441 2.96227087 -13.00054061 2.95350094 -15 3 C-14.67 2.34 -14.34 1.68 -14 1 C-10.83984375 0.5859375 -10.83984375 0.5859375 -6.9375 0.375 C-5.64714844 0.30023438 -4.35679687 0.22546875 -3.02734375 0.1484375 C-2.02832031 0.09945312 -1.02929688 0.05046875 0 0 Z " fill="#25559D" transform="translate(182,218)"/>
<path d="M0 0 C4.32614246 3.87861048 6.89790429 8.2691023 8 14 C3.3149941 9.47654603 0.75319574 6.6281225 0 0 Z " fill="#CAE3F1" transform="translate(64,142)"/>
<path d="M0 0 C-1.45733042 4.61487965 -1.45733042 4.61487965 -3.9375 6.375 C-6 7 -6 7 -9 6 C-3.15384615 0 -3.15384615 0 0 0 Z " fill="#71C0DB" transform="translate(75,37)"/>
<path d="M0 0 C1.9375 0.5625 1.9375 0.5625 4 2 C4.75 5.625 4.75 5.625 5 9 C4.01 8.67 3.02 8.34 2 8 C2 7.01 2 6.02 2 5 C1.01 5 0.02 5 -1 5 C-0.67 3.35 -0.34 1.7 0 0 Z " fill="#2B3F86" transform="translate(35,205)"/>
<path d="M0 0 C0 3 0 3 -1 6 C-3.76452033 7.38226016 -6.0461363 7.09525387 -9.125 7.0625 C-10.22070312 7.05347656 -11.31640625 7.04445312 -12.4453125 7.03515625 C-13.70988281 7.01775391 -13.70988281 7.01775391 -15 7 C-15 6.67 -15 6.34 -15 6 C-11.7 6 -8.4 6 -5 6 C-5 5.34 -5 4.68 -5 4 C-3.37373596 2.61767557 -1.7074998 1.28062485 0 0 Z " fill="#3578AE" transform="translate(167,170)"/>
<path d="M0 0 C1.98974713 2.80905477 2.1011012 4.87286664 1.75 8.1875 C1.5025 9.445625 1.255 10.70375 1 12 C0.01 12.495 0.01 12.495 -1 13 C-1.02686553 11.02090602 -1.04633375 9.04171029 -1.0625 7.0625 C-1.07410156 5.96035156 -1.08570312 4.85820313 -1.09765625 3.72265625 C-1 1 -1 1 0 0 Z " fill="#226CAD" transform="translate(20,109)"/>
<path d="M0 0 C1.98 0 3.96 0 6 0 C5.67 0.66 5.34 1.32 5 2 C3.66666667 2.33333333 2.33333333 2.66666667 1 3 C0.67 3.66 0.34 4.32 0 5 C-0.66 5 -1.32 5 -2 5 C-1.34 3.35 -0.68 1.7 0 0 Z M-7 7 C-6.34 7.66 -5.68 8.32 -5 9 C-5.99 9.66 -6.98 10.32 -8 11 C-7.67 9.68 -7.34 8.36 -7 7 Z " fill="#2791C4" transform="translate(95,91)"/>
<path d="M0 0 C0.33 0.66 0.66 1.32 1 2 C1.99 2.33 2.98 2.66 4 3 C2.68 4.32 1.36 5.64 0 7 C-0.99 6.67 -1.98 6.34 -3 6 C-2.42655063 3.13275314 -2.1385485 2.1385485 0 0 Z " fill="#4F78AC" transform="translate(219,228)"/>
<path d="M0 0 C0.33 0 0.66 0 1 0 C0.50130596 5.36891879 -0.02227532 10.69235173 -1 16 C-1.33 16 -1.66 16 -2 16 C-2.05423638 14.08364783 -2.09289963 12.16685075 -2.125 10.25 C-2.14820313 9.18265625 -2.17140625 8.1153125 -2.1953125 7.015625 C-2.00487687 4.07529894 -1.52670104 2.47638122 0 0 Z " fill="#4087B1" transform="translate(62,98)"/>
<path d="M0 0 C0 3.65351863 -0.88942301 5.06026776 -3 8 C-5.1875 9.3125 -5.1875 9.3125 -7 10 C-6.42424336 6.64749299 -5.40693737 5.06181371 -2.9375 2.75 C-2.38964844 2.22921875 -1.84179688 1.7084375 -1.27734375 1.171875 C-0.64505859 0.59179688 -0.64505859 0.59179688 0 0 Z " fill="#D8F7FD" transform="translate(79,77)"/>
<path d="M0 0 C0.99 0.33 1.98 0.66 3 1 C1.22054913 5.04420651 -1.39529673 8.46078487 -4 12 C-4.33 11.34 -4.66 10.68 -5 10 C-4 7 -4 7 -2 5 C-2 4.34 -2 3.68 -2 3 C-1.01 3 -0.02 3 1 3 C0.67 2.01 0.34 1.02 0 0 Z " fill="#7CABC7" transform="translate(238,207)"/>
<path d="M0 0 C1 3 1 3 -0.21484375 5.69921875 C-0.78332031 6.68535156 -1.35179687 7.67148438 -1.9375 8.6875 C-2.50339844 9.68136719 -3.06929687 10.67523438 -3.65234375 11.69921875 C-4.31943359 12.83810547 -4.31943359 12.83810547 -5 14 C-5.66 14 -6.32 14 -7 14 C-5.1075768 9.05058548 -2.94318492 4.41477738 0 0 Z " fill="#1B72B3" transform="translate(190,174)"/>
<path d="M0 0 C1.485 0.99 1.485 0.99 3 2 C3.5177665 7.43654822 3.5177665 7.43654822 3 10 C2.01 10.99 1.02 11.98 0 13 C0 8.71 0 4.42 0 0 Z " fill="#D9F4FC" transform="translate(166,158)"/>
<path d="M0 0 C2.64 0.33 5.28 0.66 8 1 C7.67 1.99 7.34 2.98 7 4 C7 4.99 7 5.98 7 7 C6.5875 6.54625 6.175 6.0925 5.75 5.625 C3.93591905 3.94049626 2.24714373 3.00734029 0 2 C0 1.34 0 0.68 0 0 Z " fill="#26398B" transform="translate(48,224)"/>
<path d="M0 0 C5.94 1.485 5.94 1.485 12 3 C6.76844369 5.61577816 5.40261966 4.6207859 0 3 C0 2.01 0 1.02 0 0 Z " fill="#445792" transform="translate(80,213)"/>
<path d="M0 0 C0 0.66 0 1.32 0 2 C-0.99 2 -1.98 2 -3 2 C-2.67 2.99 -2.34 3.98 -2 5 C-2.99 5.33 -3.98 5.66 -5 6 C-5.73323796 8.01508358 -5.73323796 8.01508358 -6 10 C-6.66 9.34 -7.32 8.68 -8 8 C-7.34 8 -6.68 8 -6 8 C-6.0928125 6.8553125 -6.0928125 6.8553125 -6.1875 5.6875 C-6 3 -6 3 -4.6875 1.1875 C-3 0 -3 0 0 0 Z " fill="#236AA6" transform="translate(239,208)"/>
<path d="M0 0 C0.66 0 1.32 0 2 0 C2 0.66 2 1.32 2 2 C2.66 2 3.32 2 4 2 C3.67 3.98 3.34 5.96 3 8 C2.34 8 1.68 8 1 8 C0.26919734 6.02253397 -0.39421747 4.01927511 -1 2 C-0.67 1.34 -0.34 0.68 0 0 Z " fill="#2CA9DC" transform="translate(251,112)"/>
<path d="M0 0 C0.33 0.99 0.66 1.98 1 3 C-0.40445835 5.2636564 -2.1967913 7.0208685 -4 9 C-4.99 8.34 -5.98 7.68 -7 7 C-6.21625 6.401875 -5.4325 5.80375 -4.625 5.1875 C-1.85425677 3.08914751 -1.85425677 3.08914751 0 0 Z " fill="#4876A8" transform="translate(200,202)"/>
<path d="M0 0 C1.02104551 0.97850195 2.0206121 1.97980427 3 3 C3 3.33 3 3.66 3 4 C-0.96 4 -4.92 4 -9 4 C-9 3.67 -9 3.34 -9 3 C-7.88625 2.814375 -7.88625 2.814375 -6.75 2.625 C-4.19858515 2.04513299 -2.2732427 1.26291261 0 0 Z " fill="#2861A8" transform="translate(169,193)"/>
<path d="M0 0 C3.34252724 -0.07427838 5.8035914 -0.06546953 9 1 C9 1.66 9 2.32 9 3 C9.66 3.33 10.32 3.66 11 4 C3.49230769 3.38461538 3.49230769 3.38461538 1 1.4375 C0.67 0.963125 0.34 0.48875 0 0 Z " fill="#2C3E7F" transform="translate(87,253)"/>
<path d="M0 0 C5.75 1.875 5.75 1.875 8 3 C8 3.66 8 4.32 8 5 C5.125 4.75 5.125 4.75 2 4 C0.625 1.9375 0.625 1.9375 0 0 Z " fill="#2B3B81" transform="translate(66,240)"/>
<path d="M0 0 C2.875 0.1875 2.875 0.1875 6 1 C7.375 3.5625 7.375 3.5625 8 6 C5.525 5.01 5.525 5.01 3 4 C3 3.34 3 2.68 3 2 C2.01 1.67 1.02 1.34 0 1 C0 0.67 0 0.34 0 0 Z " fill="#269CD2" transform="translate(189,114)"/>
<path d="M0 0 C0.33 0.66 0.66 1.32 1 2 C1.66 2.33 2.32 2.66 3 3 C1.68 5.31 0.36 7.62 -1 10 C-2.46726798 6.18510326 -1.43336419 3.70988378 0 0 Z " fill="#CFEFF8" transform="translate(64,98)"/>
<path d="M0 0 C5.57142857 5.14285714 5.57142857 5.14285714 6 9 C4.125 8.4375 4.125 8.4375 2 7 C0.75 3.375 0.75 3.375 0 0 Z " fill="#93D4E6" transform="translate(235,69)"/>
<path d="M0 0 C0.33 0.66 0.66 1.32 1 2 C-1.16798732 7.4770206 -1.16798732 7.4770206 -4.1875 9.375 C-4.785625 9.58125 -5.38375 9.7875 -6 10 C-4.34832443 6.4213696 -2.21713508 3.25179812 0 0 Z " fill="#7DB7D4" transform="translate(39,68)"/>
<path d="M0 0 C3.91402949 1.26941497 5.79072873 2.51167694 8 6 C7.67 6.66 7.34 7.32 7 8 C6.34 7.01 5.68 6.02 5 5 C2.94074861 4.27617533 2.94074861 4.27617533 1 4 C0.67 2.68 0.34 1.36 0 0 Z " fill="#46AED8" transform="translate(228,65)"/>
<path d="M0 0 C2.31 0.33 4.62 0.66 7 1 C7 1.66 7 2.32 7 3 C2.545 3.495 2.545 3.495 -2 4 C-1.34 2.68 -0.68 1.36 0 0 Z " fill="#344F8F" transform="translate(183,251)"/>
<path d="M0 0 C0.99 0 1.98 0 3 0 C1.81323934 4.10801767 1.10551666 5.89448334 -2 9 C-1.34 6.03 -0.68 3.06 0 0 Z " fill="#79B1CC" transform="translate(244,197)"/>
<path d="M0 0 C0.99 0 1.98 0 3 0 C2.25 6.75 2.25 6.75 0 9 C0 6.03 0 3.06 0 0 Z " fill="#81B6D4" transform="translate(252,176)"/>
<path d="M0 0 C3.99996286 1.33332095 4.83782337 3.4957827 7 7 C3.76509224 6.44225728 2.02144994 5.62788492 0 3 C0 2.01 0 1.02 0 0 Z " fill="#426DA2" transform="translate(69,155)"/>
<path d="M0 0 C3.33773709 3.64116773 3.97864902 7.28607242 5 12 C2.69857565 10.21825212 1.19965609 8.83695835 0.51171875 5.953125 C0.27676898 3.9753389 0.13248542 1.98728128 0 0 Z " fill="#B4DEEE" transform="translate(104,118)"/>
<path d="M0 0 C0.33 0 0.66 0 1 0 C2.25 6.625 2.25 6.625 0 10 C0 9.01 0 8.02 0 7 C-0.66 7 -1.32 7 -2 7 C-1.125 2.25 -1.125 2.25 0 0 Z " fill="#4891BD" transform="translate(84,102)"/>
<path d="M0 0 C1 3 1 3 1 5 C0.34 5 -0.32 5 -1 5 C-1.28875 5.969375 -1.5775 6.93875 -1.875 7.9375 C-3 11 -3 11 -5 12 C-4.54738642 10.56068883 -4.08767021 9.12361001 -3.625 7.6875 C-3.24214844 6.48673828 -3.24214844 6.48673828 -2.8515625 5.26171875 C-2 3 -2 3 0 0 Z " fill="#9AC5DD" transform="translate(28,85)"/>
<path d="M0 0 C0 0.66 0 1.32 0 2 C-0.66 2 -1.32 2 -2 2 C-2.33 2.99 -2.66 3.98 -3 5 C-4.65 5 -6.3 5 -8 5 C-3.16129032 0 -3.16129032 0 0 0 Z " fill="#CAF0F9" transform="translate(88,72)"/>
<path d="M0 0 C2.25 -0.3125 2.25 -0.3125 5 0 C7.3125 2.5 7.3125 2.5 9 5 C6.75 5.3125 6.75 5.3125 4 5 C1.6875 2.5 1.6875 2.5 0 0 Z " fill="#254E98" transform="translate(73,185)"/>
<path d="M0 0 C2.475 0.99 2.475 0.99 5 2 C5 3.98 5 5.96 5 8 C2.2175651 6.60878255 1.44789935 4.69835788 0 2 C0 1.34 0 0.68 0 0 Z " fill="#64BCD9" transform="translate(238,77)"/>
<path d="M0 0 C3.91211733 1.15585285 6.8745041 2.35534962 10 5 C6.44219804 4.39009109 3.3171411 3.4216319 0 2 C0 1.34 0 0.68 0 0 Z " fill="#41528C" transform="translate(63,206)"/>
<path d="M0 0 C0.33 0.99 0.66 1.98 1 3 C-0.8125 5.6875 -0.8125 5.6875 -3 8 C-3.66 8 -4.32 8 -5 8 C-3.62845496 5.04590299 -2.01136276 2.55991624 0 0 Z " fill="#C8E2F2" transform="translate(188,185)"/>
<path d="M0 0 C2.64752004 2.57784846 4.94432065 4.91648098 7 8 C6.01 8.495 6.01 8.495 5 9 C5 8.34 5 7.68 5 7 C4.360625 6.773125 3.72125 6.54625 3.0625 6.3125 C1 5 1 5 0.25 2.375 C0.1675 1.59125 0.085 0.8075 0 0 Z " fill="#CDEAF6" transform="translate(86,143)"/>
<path d="M0 0 C2.64 0 5.28 0 8 0 C4.55549263 2.29633824 2.06187717 2.54016485 -2 3 C-1.34 2.67 -0.68 2.34 0 2 C0 1.34 0 0.68 0 0 Z " fill="#6882B0" transform="translate(167,259)"/>
<path d="M0 0 C2.64 0.33 5.28 0.66 8 1 C8 1.99 8 2.98 8 4 C2.25 2.25 2.25 2.25 0 0 Z " fill="#D6E9F5" transform="translate(84,168)"/>
<path d="M0 0 C0.33 0 0.66 0 1 0 C1 2.31 1 4.62 1 7 C0.01 7.33 -0.98 7.66 -2 8 C-1.125 1.125 -1.125 1.125 0 0 Z " fill="#669EC4" transform="translate(21,102)"/>
<path d="M0 0 C0.99 0.33 1.98 0.66 3 1 C1.35 2.98 -0.3 4.96 -2 7 C-2.6875 5.1875 -2.6875 5.1875 -3 3 C-1.5625 1.25 -1.5625 1.25 0 0 Z " fill="#D5F2FA" transform="translate(88,93)"/>
<path d="M0 0 C-3.51187196 2.40814077 -5.72656908 3.36629408 -10 3 C-4.375 -1.3125 -4.375 -1.3125 0 0 Z " fill="#B8E9F5" transform="translate(98,69)"/>
</svg>
